<svg xmlns="http://www.w3.org/2000/svg" viewBox="0 0 500 500"><g id="freepik--background-complete--inject-2"><rect x="416.78" y="398.49" width="33.12" height="0.25" style="fill:#ebebeb"></rect><rect x="322.53" y="401.21" width="8.69" height="0.25" style="fill:#ebebeb"></rect><rect x="396.59" y="389.21" width="19.19" height="0.25" style="fill:#ebebeb"></rect><rect x="52.46" y="390.89" width="43.19" height="0.25" style="fill:#ebebeb"></rect><rect x="104.56" y="390.89" width="6.33" height="0.25" style="fill:#ebebeb"></rect><rect x="131.47" y="395.11" width="93.68" height="0.25" style="fill:#ebebeb"></rect><path d="M238.4,337.8H45.3a5.71,5.71,0,0,1-5.71-5.71V60.66A5.71,5.71,0,0,1,45.3,55H238.4a5.71,5.71,0,0,1,5.71,5.71V332.09A5.71,5.71,0,0,1,238.4,337.8ZM45.3,55.2a5.47,5.47,0,0,0-5.46,5.46V332.09a5.47,5.47,0,0,0,5.46,5.46H238.4a5.47,5.47,0,0,0,5.46-5.46V60.66a5.47,5.47,0,0,0-5.46-5.46Z" style="fill:#ebebeb"></path><path d="M454.7,337.8H261.6a5.71,5.71,0,0,1-5.71-5.71V60.66A5.71,5.71,0,0,1,261.6,55H454.7a5.71,5.71,0,0,1,5.71,5.71V332.09A5.71,5.71,0,0,1,454.7,337.8ZM261.6,55.2a5.47,5.47,0,0,0-5.46,5.46V332.09a5.47,5.47,0,0,0,5.46,5.46H454.7a5.47,5.47,0,0,0,5.46-5.46V60.66a5.47,5.47,0,0,0-5.46-5.46Z" style="fill:#ebebeb"></path><rect y="382.4" width="500" height="0.25" style="fill:#ebebeb"></rect><path d="M102.24,308.48s-6.78,3.71-14-15.12-13.16-40.75-23.92-48.6c0,0,16.47-.72,28.74,22.6S105.65,307.1,102.24,308.48Z" style="fill:#e0e0e0"></path><path d="M105.43,315.92c-3.3-11.69-6.48-21.25-9.43-29.05a15.48,15.48,0,0,1,1-8.23c-1.52,1.48-1.9,3.93-1.93,5.81-2.46-6.3-4.75-11.36-6.79-15.42-.59-4.11.91-5.22.91-5.22-1.57.38-1.85,2.07-1.79,3.51-5.64-10.73-9.23-13.49-9.23-13.49,1.38,2.17,2.69,4.37,4,6.58-3.55-2.53-6.15-2.56-6.15-2.56a16.45,16.45,0,0,1,7.22,4.47c2.5,4.56,4.74,9.15,6.73,13.64a19.55,19.55,0,0,0-8-6c.65.28,4.68,2.23,9.27,9,2.24,5.27,4.13,10.31,5.7,14.9a14.1,14.1,0,0,0-9-4.13c5.46,1.73,8.25,4.18,9.63,5.92a196.73,196.73,0,0,1,5.64,20Z" style="fill:#f5f5f5"></path><path d="M82,270l-.1,0Z" style="fill:#f5f5f5"></path><path d="M138.58,308.17s8.38,4.23,16.4-18.9,14.36-50,27.11-59.93c0,0-20-.22-34,28.56S134.39,306.63,138.58,308.17Z" style="fill:#f0f0f0"></path><path d="M135,317.31c3.55-14.31,7-26,10.3-35.61a18.9,18.9,0,0,0-1.54-10c1.91,1.75,2.46,4.7,2.57,7,2.74-7.75,5.31-14,7.64-19,.55-5-1.31-6.31-1.31-6.31,1.91.4,2.33,2.44,2.31,4.19,6.41-13.25,10.67-16.74,10.67-16.74-1.6,2.69-3.1,5.41-4.54,8.15,4.21-3.22,7.36-3.35,7.36-3.35a20,20,0,0,0-8.59,5.71c-2.85,5.63-5.39,11.29-7.63,16.81a24,24,0,0,1,9.43-7.54c-.78.37-5.59,2.89-10.89,11.25-2.51,6.48-4.6,12.68-6.33,18.31a17.17,17.17,0,0,1,10.8-5.38c-6.56,2.32-9.85,5.41-11.46,7.57a240.81,240.81,0,0,0-6.06,24.5Z" style="fill:#e0e0e0"></path><path d="M161.67,260.67l.12-.05Z" style="fill:#e0e0e0"></path><path d="M113.39,306.89s-10.2,2.88-14.11-24.49-5.13-58.49-17.11-72.26c0,0,22.23,4.07,31.5,39S118.36,306.09,113.39,306.89Z" style="fill:#ebebeb"></path><path d="M115.38,317.8c-.84-16.63-2.17-30.37-3.73-41.7a21.26,21.26,0,0,1,3.85-10.7c-2.49,1.52-3.74,4.68-4.36,7.19-1.36-9.18-2.87-16.65-4.36-22.69.47-5.67,2.81-6.7,2.81-6.7-2.21,0-3.11,2.2-3.47,4.15-4.24-16.07-8.21-20.86-8.21-20.86,1.19,3.32,2.27,6.67,3.28,10-4-4.47-7.44-5.3-7.44-5.3a22.46,22.46,0,0,1,8.28,8.18c2,6.85,3.54,13.68,4.83,20.28A27,27,0,0,0,98,249.27c.79.57,5.58,4.4,9.65,14.82,1.38,7.71,2.36,15,3.06,21.65a19.44,19.44,0,0,0-10.81-8.29c6.77,4,9.75,8.12,11.07,10.86a274.53,274.53,0,0,1,1.43,28.46Z" style="fill:#e0e0e0"></path><path d="M98,249.27l-.12-.09Z" style="fill:#e0e0e0"></path><path d="M123.74,306.43s11.11,3.34,15.87-26.54,6.66-63.9,20-78.76c0,0-24.4,4.05-35.17,42.09S118.32,305.47,123.74,306.43Z" style="fill:#f5f5f5"></path><path d="M121.37,318.33c1.22-18.18,2.92-33.19,4.82-45.55a23.29,23.29,0,0,0-4-11.78c2.69,1.71,4,5.18,4.64,7.94,1.65-10,3.43-18.16,5.18-24.74-.42-6.21-3-7.39-3-7.39,2.42.08,3.36,2.46,3.72,4.6,4.94-17.51,9.36-22.67,9.36-22.67-1.36,3.61-2.61,7.25-3.76,10.89,4.43-4.82,8.22-5.66,8.22-5.66a24.61,24.61,0,0,0-9.2,8.8c-2.26,7.46-4.12,14.9-5.65,22.1a29.47,29.47,0,0,1,9.84-11.21c-.87.61-6.18,4.72-10.82,16-1.65,8.42-2.85,16.42-3.73,23.64a21.21,21.21,0,0,1,12-8.88c-7.48,4.24-10.82,8.71-12.31,11.69a298.4,298.4,0,0,0-2.07,31.11Z" style="fill:#e0e0e0"></path><path d="M141.56,243.66l.14-.1Z" style="fill:#e0e0e0"></path><path d="M114,382.65h17.58a18,18,0,0,0,18-17.2L151.78,314h-58L96,365.45A18,18,0,0,0,114,382.65Z" style="fill:#f0f0f0"></path><path d="M372.73,323.11s-14-8.3-6.21-18-11.09-15.69-1.23-26-4.88-15.72.73-24.72-2.35-21.32,6.39-26.09,9.41,15.25,16.09,20.08-4.31,18.16,1.38,26.66-8.62,22.18-3,26.44S381.62,319.4,372.73,323.11Z" style="fill:#e0e0e0"></path><path d="M370.48,328.41s11.68-43.62,7.26-87.1c0,0,8.91,18.45-4.77,88.73Z" style="fill:#f0f0f0"></path><path d="M346.43,324.32s-16.24.38-14.82-11.95S313.88,305,316.75,291s-12.49-10.73-12.52-21.33-13.31-16.82-8.43-25.51,16.07,7.92,24.29,8.48,6,17.67,15.33,21.86,4.47,23.37,11.52,24S352,316.45,346.43,324.32Z" style="fill:#f0f0f0"></path><path d="M347.34,330s-13.26-43.16-40.1-77.66c0,0,17.35,10.9,43.07,77.72Z" style="fill:#e0e0e0"></path><path d="M362.87,324.18s-15.62-4.47-10.59-15.82S337.56,296,344.46,283.5s-8.73-14-5.59-24.1-7.7-20-.46-26.85,13,12.34,20.67,15.32.46,18.66,8.12,25.43-2.68,23.64,3.86,26.32S370.52,318.33,362.87,324.18Z" style="fill:#ebebeb"></path><path d="M362,329.87s.19-45.15-15.15-86.07c0,0,13.31,15.57,18,87Z" style="fill:#e0e0e0"></path><path d="M381,325s16.24.14,14.64-12.17,17.61-7.66,14.54-21.62,12.33-10.91,12.2-21.52,13.06-17,8.06-25.62-15.95,8.16-24.16,8.83-5.74,17.76-15,22.08-4.13,23.43-11.16,24.15S375.27,317.26,381,325Z" style="fill:#e6e6e6"></path><path d="M380.12,330.74s12.62-43.36,38.95-78.24c0,0-17.18,11.15-41.92,78.34Z" style="fill:#e0e0e0"></path><polygon points="372.42 333.24 352.42 333.24 336.41 333.24 345.35 382.65 379.5 382.65 388.44 333.24 372.42 333.24" style="fill:#ebebeb"></polygon><polygon points="386.08 346.25 388.44 333.24 372.42 333.24 352.42 333.24 336.41 333.24 338.76 346.25 386.08 346.25" style="fill:#e0e0e0"></polygon><rect x="329.9" y="326.73" width="65.04" height="13.01" rx="3.73" style="fill:#ebebeb"></rect><rect x="88" y="105.85" width="33.67" height="17.81" rx="4.23" style="fill:#f5f5f5"></rect><rect x="124.8" y="105.85" width="33.67" height="17.81" rx="4.23" style="fill:#f0f0f0"></rect><rect x="104.84" y="125.94" width="33.67" height="17.81" rx="4.23" style="fill:#ebebeb"></rect><rect x="372.04" y="113.21" width="33.67" height="17.81" rx="4.23" transform="translate(777.76 244.23) rotate(180)" style="fill:#f5f5f5"></rect><rect x="335.25" y="113.21" width="33.67" height="17.81" rx="4.23" transform="translate(704.16 244.23) rotate(180)" style="fill:#f0f0f0"></rect><rect x="355.21" y="133.3" width="33.67" height="17.81" rx="4.23" transform="translate(744.09 284.4) rotate(180)" style="fill:#f5f5f5"></rect><rect x="389.35" y="181.62" width="33.67" height="17.81" rx="4.23" transform="translate(812.36 381.05) rotate(180)" style="fill:#f5f5f5"></rect><rect x="378.11" y="202.89" width="33.67" height="17.81" rx="4.23" transform="translate(789.89 423.59) rotate(180)" style="fill:#fafafa"></rect><rect x="355.21" y="93.12" width="33.67" height="17.81" rx="4.23" transform="translate(744.09 204.06) rotate(180)" style="fill:#ebebeb"></rect></g><g id="freepik--Shadow--inject-2"><ellipse id="freepik--path--inject-2" cx="250" cy="415.69" rx="193.89" ry="11.32" style="fill:#f5f5f5"></ellipse></g><g id="freepik--Spiders--inject-2"><path d="M126,150.42l4.27-6.51,7.45,2.52a10.8,10.8,0,0,1,14.77-8.52l1.54-7.72,7.78-.45a.84.84,0,0,1,.88.79.83.83,0,0,1-.78.88l-6.5.37-1.37,6.89c.18.11.36.24.53.36l2.2-5.36,7.72,1a.84.84,0,1,1-.22,1.66l-6.45-.88L156,140.12a11.58,11.58,0,0,1,1.33,1.54l1.71-4.18,7.73,1.05a.84.84,0,0,1,.71.94.82.82,0,0,1-.94.71l-6.44-.87-1.72,4.18a10.08,10.08,0,0,1,.64,1.87l2.82-4.29,7.38,2.5a.83.83,0,1,1-.54,1.58l-6.16-2.09-3.19,4.87A10.81,10.81,0,0,1,143,157.3l-5.81.34L136,164a.84.84,0,0,1-1.64-.33l1.53-7.64,5.12-.3a10.85,10.85,0,0,1-1.3-1.48l-4.48-.61-2.46,6a.84.84,0,0,1-1.55-.63l3-7.22,4.47.61a11.27,11.27,0,0,1-.66-1.93l-5-.67-2.47,6a.83.83,0,0,1-1.08.46.84.84,0,0,1-.46-1.09l3-7.21,5.74.77c0-.21,0-.42,0-.64L131,145.9l-3.57,5.44a.85.85,0,0,1-1.16.24A.84.84,0,0,1,126,150.42Z" style="fill:#263238"></path><path d="M153.3,151a1.72,1.72,0,1,1,1.72,1.72A1.72,1.72,0,0,1,153.3,151Z" style="fill:#03A84E"></path><circle cx="156.74" cy="148.51" r="0.86" style="fill:#03A84E"></circle><circle cx="157.31" cy="146.36" r="0.43" style="fill:#03A84E"></circle><path d="M150,153.78a1.72,1.72,0,0,0-2.43,2.43,1.7,1.7,0,0,0,2.43,0A1.72,1.72,0,0,0,150,153.78Z" style="fill:#03A84E"></path><path d="M146.48,153.88a.86.86,0,1,0,0,1.22A.88.88,0,0,0,146.48,153.88Z" style="fill:#03A84E"></path><circle cx="143.95" cy="153.38" r="0.43" style="fill:#03A84E"></circle><path d="M151.47,191.36l-.88-4.22,3.91-1.93a6,6,0,0,1,2.44-9.12l-2.42-3.62,2.87-3.22a.47.47,0,0,1,.66,0,.46.46,0,0,1,0,.65l-2.39,2.69,2.16,3.24.35-.07-1.24-3,3.43-2.61a.46.46,0,0,1,.65.08.47.47,0,0,1-.09.65l-2.87,2.18,1.07,2.56a5.38,5.38,0,0,1,1.13.08l-1-2.31,3.44-2.61a.44.44,0,0,1,.64.09.45.45,0,0,1-.08.64l-2.87,2.18,1,2.31a6.84,6.84,0,0,1,1,.48l-.58-2.78,3.87-1.91a.46.46,0,1,1,.41.83l-3.23,1.59.65,3.16a6,6,0,0,1-2.68,10l-2.15,2.41,2,3a.46.46,0,0,1-.13.64.46.46,0,0,1-.64-.12l-2.39-3.59,1.89-2.12a6.75,6.75,0,0,1-1.09-.08l-2,1.52,1.39,3.32a.45.45,0,0,1-.25.6.46.46,0,0,1-.6-.24l-1.67-4,2-1.52a5.55,5.55,0,0,1-1-.49L154,188.41l1.39,3.32a.46.46,0,1,1-.85.35l-1.67-4,2.56-2a3,3,0,0,1-.27-.23l-3.49,1.72.73,3.53a.46.46,0,0,1-.36.54A.46.46,0,0,1,151.47,191.36Z" style="fill:#263238"></path><circle cx="163.03" cy="180.22" r="0.95" style="fill:#03A84E"></circle><path d="M162.41,178.93a.47.47,0,1,1,.67,0A.48.48,0,0,1,162.41,178.93Z" style="fill:#03A84E"></path><circle cx="162.13" cy="177.53" r="0.24" style="fill:#03A84E"></circle><path d="M162.18,183.28a1,1,0,1,0,.95.95A1,1,0,0,0,162.18,183.28Z" style="fill:#03A84E"></path><circle cx="160.83" cy="185.19" r="0.48" style="fill:#03A84E"></circle><path d="M159.64,185.26a.24.24,0,1,0,.24.24A.23.23,0,0,0,159.64,185.26Z" style="fill:#03A84E"></path></g><g id="freepik--Virus--inject-2"><path d="M347.88,199.63v-.39a.61.61,0,0,0-.61-.61h-1.74a.61.61,0,0,0-.62.61v.39a.61.61,0,0,0,.62.61h0s0,2.28,0,3c-.06,1.64-.4,5.83-.54,7.64a.79.79,0,0,0,.79.86H347a.79.79,0,0,0,.79-.86c-.15-1.81-.48-6-.54-7.64,0-.76,0-3,0-3h0A.61.61,0,0,0,347.88,199.63Z" style="fill:#03A84E"></path><path d="M345.48,200.24h0s0,.37,0,.87h1.72c0-.5,0-.87,0-.87h-1.79Z" style="opacity:0.2"></path><path d="M347.62,198.75v0a.65.65,0,0,0-.34-.1h-1.74a.62.62,0,0,0-.34.1v0c0,.14.55.25,1.22.25S347.62,198.89,347.62,198.75Z" style="opacity:0.2"></path><path d="M345.78,211.78H347a.79.79,0,0,0,.79-.86c-.15-1.81-.48-6-.54-7.64,0-.08,0-.18,0-.3,0,2.37.51,7.42-.48,8.11a1.13,1.13,0,0,1-1.76-.55c0,.14,0,.26,0,.38A.79.79,0,0,0,345.78,211.78Z" style="opacity:0.2"></path><path d="M344.91,255.44v.49a.77.77,0,0,0,.78.77h2.19a.77.77,0,0,0,.78-.77v-.49a.78.78,0,0,0-.78-.77h0s0-2.87,0-3.83c.08-2.07.5-7.35.69-9.63a1,1,0,0,0-1-1.08H346a1,1,0,0,0-1,1.08c.19,2.28.61,7.56.69,9.63,0,1,0,3.83,0,3.83h0A.78.78,0,0,0,344.91,255.44Z" style="fill:#03A84E"></path><path d="M347.94,254.68h-.06s0-.47,0-1.09H345.7c0,.62,0,1.09,0,1.09h2.25Z" style="opacity:0.2"></path><path d="M345.25,256.56h0a.78.78,0,0,0,.43.13h2.19a.84.84,0,0,0,.44-.13h0c0-.18-.69-.33-1.53-.33S345.25,256.38,345.25,256.56Z" style="opacity:0.2"></path><path d="M347.57,240.13H346a1,1,0,0,0-1,1.08c.19,2.28.61,7.56.69,9.63,0,.1,0,.23,0,.37,0-3-.64-9.35.6-10.22a1.43,1.43,0,0,1,2.23.69c0-.17,0-.33,0-.47A1,1,0,0,0,347.57,240.13Z" style="opacity:0.2"></path><path d="M337.23,198l-.19-.45a.77.77,0,0,0-1-.42l-2,.84a.77.77,0,0,0-.41,1l.18.45a.77.77,0,0,0,1,.42h0s1.13,2.64,1.47,3.54c.72,1.94,2.35,7,3.05,9.16a1,1,0,0,0,1.34.62l1.45-.6a1,1,0,0,0,.51-1.39c-1.05-2-3.46-6.75-4.32-8.63-.4-.88-1.47-3.54-1.47-3.54h0A.77.77,0,0,0,337.23,198Z" style="fill:#03A84E"></path><path d="M355.88,250.93l.15.36a.63.63,0,0,0,.82.34l1.64-.68a.63.63,0,0,0,.34-.82l-.15-.36a.63.63,0,0,0-.82-.34h0s-.91-2.13-1.18-2.86c-.59-1.57-1.91-5.64-2.47-7.4a.81.81,0,0,0-1.08-.5l-1.17.48a.81.81,0,0,0-.41,1.12c.84,1.65,2.79,5.45,3.49,7,.32.7,1.18,2.86,1.18,2.86h0A.63.63,0,0,0,355.88,250.93Z" style="fill:#03A84E"></path><path d="M357.9,249.42h0l-.34-.81-1.63.67.33.82,0,0Z" style="opacity:0.2"></path><path d="M356.48,251.65h0a.57.57,0,0,0,.36,0l1.64-.68a.63.63,0,0,0,.28-.23v0c-.06-.13-.61,0-1.25.24S356.42,251.52,356.48,251.65Z" style="opacity:0.2"></path><path d="M353.13,238.67l-1.17.48a.81.81,0,0,0-.41,1.12c.84,1.65,2.79,5.45,3.49,7a2.86,2.86,0,0,0,.12.27c-.93-2.22-3.37-6.78-2.71-7.82a1.17,1.17,0,0,1,1.88-.17l-.12-.36A.81.81,0,0,0,353.13,238.67Z" style="opacity:0.2"></path><path d="M373.07,227h.38a.61.61,0,0,0,.61-.61v-1.74a.61.61,0,0,0-.61-.61h-.38a.61.61,0,0,0-.61.61h0s-2.27,0-3,0c-1.64-.06-5.81-.39-7.61-.54a.79.79,0,0,0-.86.79v1.24a.79.79,0,0,0,.86.79c1.8-.15,6-.48,7.61-.54.76,0,3,0,3,0h0A.61.61,0,0,0,373.07,227Z" style="fill:#03A84E"></path><path d="M372.46,224.65v0h-.87v1.72h.87v-1.78Z" style="opacity:0.2"></path><path d="M374,226.77h0a.67.67,0,0,0,.1-.34v-1.74a.65.65,0,0,0-.1-.34h0c-.14,0-.26.54-.26,1.21S373.81,226.77,374,226.77Z" style="opacity:0.2"></path><path d="M361,224.94v1.24a.79.79,0,0,0,.86.79c1.8-.15,6-.48,7.61-.54h.29c-2.35,0-7.39.51-8.08-.48a1.14,1.14,0,0,1,.55-1.76l-.37,0A.79.79,0,0,0,361,224.94Z" style="opacity:0.2"></path><path d="M320.5,224.86h-.38a.61.61,0,0,0-.61.62v1.73a.61.61,0,0,0,.61.61h.38a.61.61,0,0,0,.62-.61h0s2.27,0,3,0c1.64.06,5.81.39,7.62.54a.78.78,0,0,0,.85-.79v-1.24a.79.79,0,0,0-.85-.79c-1.81.15-6,.49-7.62.55-.75,0-3,0-3,0h0A.62.62,0,0,0,320.5,224.86Z" style="fill:#03A84E"></path><path d="M321.11,227.26s0,0,0,0H322v-1.72h-.86s0,0,0,0Z" style="opacity:0.2"></path><path d="M319.63,225.13h0a.68.68,0,0,0-.1.35v1.73a.62.62,0,0,0,.1.34h0c.14,0,.25-.55.25-1.22S319.77,225.13,319.63,225.13Z" style="opacity:0.2"></path><path d="M332.61,227v-1.24a.79.79,0,0,0-.85-.79c-1.81.15-6,.49-7.62.55h-.29c2.36,0,7.39-.5,8.08.48a1.13,1.13,0,0,1-.55,1.76l.38,0A.78.78,0,0,0,332.61,227Z" style="opacity:0.2"></path><path d="M366.32,248.13l.34.34a.77.77,0,0,0,1.09,0l1.56-1.55a.78.78,0,0,0,0-1.1l-.34-.34a.78.78,0,0,0-1.1,0h0s-2.06-2-2.71-2.7c-1.41-1.53-4.84-5.55-6.33-7.3a1,1,0,0,0-1.47-.06l-1.11,1.11a1,1,0,0,0,.06,1.47c1.75,1.48,5.78,4.91,7.3,6.33.7.65,2.71,2.7,2.71,2.7h0A.77.77,0,0,0,366.32,248.13Z" style="fill:#03A84E"></path><path d="M367.91,245.45l0,0-.78-.76-1.54,1.54.77.77,0,.05Z" style="opacity:0.2"></path><path d="M367.34,248.68h0a.66.66,0,0,0,.39-.21l1.56-1.55a.78.78,0,0,0,.21-.4h0c-.12-.13-.71.25-1.31.85S367.22,248.55,367.34,248.68Z" style="opacity:0.2"></path><path d="M357.36,235.42l-1.11,1.11a1,1,0,0,0,.06,1.47c1.75,1.48,5.78,4.91,7.3,6.33l.27.25c-2.11-2.1-7.07-6.16-6.8-7.65a1.43,1.43,0,0,1,2.06-1.09l-.31-.36A1,1,0,0,0,357.36,235.42Z" style="opacity:0.2"></path><path d="M330.34,206.86l-.24-.25a.57.57,0,0,0-.79,0l-1.11,1.11a.57.57,0,0,0,0,.79l.25.24a.54.54,0,0,0,.78,0h0s1.47,1.44,1.94,1.94c1,1.09,3.46,4,4.52,5.22a.73.73,0,0,0,1.05,0l.8-.8a.73.73,0,0,0,0-1.05c-1.25-1.06-4.13-3.51-5.22-4.52-.5-.47-1.94-1.94-1.94-1.94h0A.54.54,0,0,0,330.34,206.86Z" style="fill:#03A84E"></path><path d="M329.2,208.78l0,0,.56.55,1.1-1.1-.55-.56,0,0Z" style="opacity:0.2"></path><path d="M329.61,206.47h0a.62.62,0,0,0-.29.15l-1.11,1.11a.62.62,0,0,0-.15.29h0c.09.09.51-.18.94-.61S329.7,206.56,329.61,206.47Z" style="opacity:0.2"></path><path d="M336.74,216l.8-.8a.73.73,0,0,0,0-1.05c-1.25-1.06-4.13-3.51-5.22-4.52l-.19-.18c1.51,1.5,5.05,4.4,4.86,5.47a1,1,0,0,1-1.48.77l.22.27A.73.73,0,0,0,336.74,216Z" style="opacity:0.2"></path><path d="M369.1,235.88l.3.12a.51.51,0,0,0,.68-.28l.56-1.35a.51.51,0,0,0-.28-.68l-.3-.12a.51.51,0,0,0-.67.28h0s-1.79-.72-2.37-1c-1.26-.58-4.41-2.19-5.78-2.89a.67.67,0,0,0-.92.34l-.4,1a.67.67,0,0,0,.41.89c1.46.47,4.83,1.56,6.13,2,.6.23,2.36,1,2.36,1h0A.52.52,0,0,0,369.1,235.88Z" style="fill:#03A84E"></path><path d="M369.4,233.81s0,0,0,0l-.68-.28-.56,1.35.67.28a.06.06,0,0,1,0,0Z" style="opacity:0.2"></path><path d="M369.88,236h0a.57.57,0,0,0,.19-.24l.56-1.35a.53.53,0,0,0,0-.3h0c-.11-.05-.37.34-.59.86S369.77,235.91,369.88,236Z" style="opacity:0.2"></path><path d="M360.32,230.32l-.4,1a.67.67,0,0,0,.41.89c1.46.47,4.83,1.56,6.13,2l.23.09c-1.84-.76-5.94-2-6.16-3-.1-.45.05-1.11,1-1.2l-.29-.14A.67.67,0,0,0,360.32,230.32Z" style="opacity:0.2"></path><path d="M320.25,212.93l-.44-.18a.77.77,0,0,0-1,.42l-.84,2a.76.76,0,0,0,.42,1l.44.18a.76.76,0,0,0,1-.41h0s2.67,1.06,3.54,1.46c1.89.86,6.6,3.27,8.64,4.32a1,1,0,0,0,1.38-.51l.6-1.45a1,1,0,0,0-.62-1.33c-2.18-.7-7.21-2.33-9.16-3.06-.9-.33-3.54-1.46-3.54-1.46h0A.78.78,0,0,0,320.25,212.93Z" style="fill:#03A84E"></path><path d="M319.81,216a.17.17,0,0,0,0-.05l1,.4.83-2-1-.42s0,0,0-.06Z" style="opacity:0.2"></path><path d="M319.1,212.82h0a.76.76,0,0,0-.28.35l-.84,2a.71.71,0,0,0,0,.45h0c.17.06.57-.51.89-1.3S319.26,212.89,319.1,212.82Z" style="opacity:0.2"></path><path d="M333.39,221.25l.6-1.45a1,1,0,0,0-.62-1.33c-2.18-.7-7.21-2.33-9.16-3.06l-.34-.13c2.75,1.14,8.88,3,9.21,4.47.15.67-.08,1.66-1.5,1.79l.43.22A1,1,0,0,0,333.39,221.25Z" style="opacity:0.2"></path><path d="M324.61,245.48l-.34.34a.77.77,0,0,0,0,1.1l1.55,1.55a.77.77,0,0,0,1.09,0l.35-.34a.78.78,0,0,0,0-1.1h0s2-2.05,2.7-2.7c1.52-1.42,5.55-4.85,7.3-6.33a1,1,0,0,0,.06-1.47l-1.11-1.11a1,1,0,0,0-1.47.06c-1.48,1.75-4.92,5.77-6.33,7.3-.65.7-2.71,2.7-2.71,2.7h0A.77.77,0,0,0,324.61,245.48Z" style="fill:#03A84E"></path><path d="M327.29,247.08l0-.05.76-.77-1.54-1.54-.78.76,0,0Z" style="opacity:0.2"></path><path d="M324.06,246.51h0a.73.73,0,0,0,.22.4l1.55,1.55a.65.65,0,0,0,.4.21h0c.13-.13-.26-.72-.86-1.32S324.19,246.38,324.06,246.51Z" style="opacity:0.2"></path><path d="M337.32,236.53l-1.11-1.11a1,1,0,0,0-1.47.06c-1.48,1.75-4.92,5.77-6.33,7.3l-.25.26c2.1-2.11,6.16-7.06,7.65-6.8a1.44,1.44,0,0,1,1.08,2.07l.37-.31A1,1,0,0,0,337.32,236.53Z" style="opacity:0.2"></path><path d="M365.33,209.27l.24-.24a.55.55,0,0,0,0-.77l-1.09-1.09a.55.55,0,0,0-.77,0l-.24.24a.55.55,0,0,0,0,.77h0s-1.4,1.44-1.9,1.9c-1.06,1-3.88,3.39-5.11,4.43a.7.7,0,0,0,0,1l.78.78a.7.7,0,0,0,1,0c1-1.23,3.44-4.05,4.43-5.12.46-.49,1.9-1.89,1.9-1.89h0A.55.55,0,0,0,365.33,209.27Z" style="fill:#03A84E"></path><path d="M363.45,208.15l0,0-.53.54L364,209.8l.55-.53,0,0Z" style="opacity:0.2"></path><path d="M365.71,208.55h0a.55.55,0,0,0-.15-.28l-1.09-1.09a.55.55,0,0,0-.28-.15h0c-.09.09.18.5.6.92S365.62,208.64,365.71,208.55Z" style="opacity:0.2"></path><path d="M356.42,215.54l.78.78a.7.7,0,0,0,1,0c1-1.23,3.44-4.05,4.43-5.12l.18-.18c-1.47,1.48-4.32,5-5.36,4.76a1,1,0,0,1-.76-1.45l-.26.22A.7.7,0,0,0,356.42,215.54Z" style="opacity:0.2"></path><path d="M321.79,234.28l-.35.15a.6.6,0,0,0-.34.8l.67,1.6a.61.61,0,0,0,.8.33l.35-.15a.61.61,0,0,0,.33-.8h0s2.09-.89,2.8-1.15c1.54-.58,5.52-1.86,7.24-2.42a.79.79,0,0,0,.49-1l-.48-1.15a.79.79,0,0,0-1.09-.4c-1.61.83-5.33,2.73-6.83,3.41-.68.32-2.79,1.16-2.79,1.16h0A.61.61,0,0,0,321.79,234.28Z" style="fill:#03A84E"></path><path d="M374.75,216.39l.45-.18a.78.78,0,0,0,.42-1l-.84-2a.78.78,0,0,0-1-.42l-.44.18a.78.78,0,0,0-.42,1h0s-2.64,1.13-3.54,1.46c-1.94.73-7,2.36-9.16,3.06a1,1,0,0,0-.62,1.33l.6,1.45a1,1,0,0,0,1.38.51c2-1,6.75-3.46,8.64-4.32.87-.4,3.54-1.46,3.54-1.46h0A.77.77,0,0,0,374.75,216.39Z" style="fill:#03A84E"></path><path d="M372.88,213.89s0,0,0,.06l-1,.42.84,2,1-.4,0,.05Z" style="opacity:0.2"></path><path d="M375.65,215.66h0a.78.78,0,0,0,0-.45l-.84-2a.77.77,0,0,0-.29-.35h0c-.16.07,0,.76.29,1.54S375.48,215.72,375.65,215.66Z" style="opacity:0.2"></path><path d="M359.58,219.8l.6,1.45a1,1,0,0,0,1.38.51c2-1,6.75-3.46,8.64-4.32l.34-.15c-2.75,1.15-8.4,4.17-9.68,3.36a1.45,1.45,0,0,1-.21-2.33l-.45.15A1,1,0,0,0,359.58,219.8Z" style="opacity:0.2"></path><path d="M335,249.52l-.15.35a.61.61,0,0,0,.33.8l1.61.66a.61.61,0,0,0,.8-.33l.14-.35a.61.61,0,0,0-.33-.8h0s.85-2.11,1.16-2.8c.68-1.49,2.59-5.21,3.41-6.82a.79.79,0,0,0-.4-1.1l-1.14-.47a.79.79,0,0,0-1.06.49c-.55,1.72-1.84,5.7-2.41,7.24-.27.71-1.16,2.8-1.16,2.8h0A.61.61,0,0,0,335,249.52Z" style="fill:#03A84E"></path><path d="M337.44,249.87a.05.05,0,0,0,0,0l.32-.8-1.58-.66c-.2.45-.34.8-.34.8l0,0Z" style="opacity:0.2"></path><path d="M334.91,250.43h0a.61.61,0,0,0,.27.23l1.61.66a.61.61,0,0,0,.35,0h0c.05-.13-.4-.45-1-.7S335,250.3,334.91,250.43Z" style="opacity:0.2"></path><path d="M341.57,239.13l-1.14-.47a.79.79,0,0,0-1.06.49c-.55,1.72-1.84,5.7-2.41,7.24l-.11.27c.9-2.18,2.36-7,3.53-7.28.54-.12,1.32.06,1.42,1.18l.17-.33A.79.79,0,0,0,341.57,239.13Z" style="opacity:0.2"></path><path d="M359.8,199.42,360,199a.78.78,0,0,0-.42-1l-2-.84a.77.77,0,0,0-1,.42l-.19.45a.78.78,0,0,0,.42,1h0s-1.06,2.66-1.46,3.54c-.87,1.88-3.28,6.6-4.32,8.63a1,1,0,0,0,.51,1.39l1.45.6a1,1,0,0,0,1.33-.62c.7-2.18,2.33-7.22,3.06-9.16.33-.9,1.46-3.54,1.46-3.54h0A.77.77,0,0,0,359.8,199.42Z" style="fill:#03A84E"></path><path d="M356.71,199l.05,0s-.17.43-.41,1l2,.83c.25-.57.43-1,.43-1l0,0Z" style="opacity:0.2"></path><path d="M359.92,198.26h0a.72.72,0,0,0-.35-.29l-2-.84a.78.78,0,0,0-.45,0h0c-.07.16.51.56,1.29.88S359.85,198.43,359.92,198.26Z" style="opacity:0.2"></path><path d="M351.49,212.56l1.45.6a1,1,0,0,0,1.33-.62c.7-2.18,2.33-7.22,3.06-9.16,0-.1.08-.22.13-.35-1.14,2.76-3,8.89-4.47,9.22-.68.14-1.66-.08-1.79-1.5l-.22.42A1,1,0,0,0,351.49,212.56Z" style="opacity:0.2"></path><path d="M334.73,199.86l0,0s.19.43.43,1l2-.83c-.24-.58-.41-1-.41-1l.05,0Z" style="opacity:0.2"></path><path d="M336.49,197.09h0a.78.78,0,0,0-.45,0l-2,.84a.74.74,0,0,0-.34.29h0c.07.17.76,0,1.54-.29S336.56,197.25,336.49,197.09Z" style="opacity:0.2"></path><circle cx="346.79" cy="225.95" r="14.96" style="fill:#03A84E"></circle><path d="M356.46,214.54a15,15,0,0,1-21.09,21.08,15,15,0,1,0,21.09-21.08Z" style="opacity:0.2"></path><path d="M351.36,205l.08-.39a.64.64,0,0,0-.5-.75l-1.76-.36a.63.63,0,0,0-.75.49l-.08.39a.63.63,0,0,0,.49.75h0s-.44,2.32-.62,3.08c-.4,1.66-1.61,5.83-2.13,7.64a.82.82,0,0,0,.62,1l1.27.25a.82.82,0,0,0,1-.7c.22-1.87.74-6.18,1-7.86.13-.78.63-3.08.63-3.08h0A.64.64,0,0,0,351.36,205Z" style="fill:#03A84E"></path><path d="M339.69,246.52l-.09.41a.67.67,0,0,0,.53.79l1.86.38a.66.66,0,0,0,.79-.52l.08-.41a.66.66,0,0,0-.52-.79h0s.47-2.44.66-3.25c.42-1.74,1.69-6.14,2.24-8a.87.87,0,0,0-.66-1.09l-1.33-.27a.87.87,0,0,0-1,.75c-.24,2-.79,6.51-1.08,8.28-.14.82-.66,3.25-.66,3.25h0A.67.67,0,0,0,339.69,246.52Z" style="fill:#03A84E"></path><path d="M343.33,207.65l-.05-.28a.47.47,0,0,0-.55-.38l-1.31.26a.46.46,0,0,0-.37.55l.05.29a.47.47,0,0,0,.55.37h0s.36,1.7.45,2.28c.19,1.24.55,4.43.71,5.81a.59.59,0,0,0,.71.53l.94-.18a.61.61,0,0,0,.47-.76c-.38-1.34-1.24-4.43-1.53-5.66-.13-.56-.44-2.28-.44-2.28h0A.46.46,0,0,0,343.33,207.65Z" style="fill:#03A84E"></path><path d="M347.93,243.21l.06.29a.47.47,0,0,0,.55.37l1.3-.26a.47.47,0,0,0,.38-.55l-.06-.28a.47.47,0,0,0-.55-.38h0s-.35-1.7-.44-2.28c-.2-1.24-.56-4.43-.71-5.81a.61.61,0,0,0-.72-.53l-.93.18a.61.61,0,0,0-.47.76c.37,1.34,1.23,4.43,1.52,5.66.13.56.44,2.28.44,2.28h0A.47.47,0,0,0,347.93,243.21Z" style="fill:#03A84E"></path><path d="M362.94,230.11l.28.06a.47.47,0,0,0,.56-.37l.26-1.3a.48.48,0,0,0-.36-.56l-.29-.05a.47.47,0,0,0-.56.36h0s-1.71-.32-2.27-.46c-1.23-.3-4.31-1.19-5.64-1.57a.61.61,0,0,0-.77.46l-.19.93a.62.62,0,0,0,.52.73c1.38.16,4.57.55,5.81.75.58.1,2.28.47,2.28.47h0A.47.47,0,0,0,362.94,230.11Z" style="fill:#03A84E"></path><path d="M323.61,219.79l-.43-.09a.71.71,0,0,0-.84.56l-.41,2a.71.71,0,0,0,.56.84l.44.09a.71.71,0,0,0,.84-.56h0s2.59.5,3.45.71c1.86.45,6.54,1.79,8.57,2.38A.92.92,0,0,0,337,225l.28-1.41a.91.91,0,0,0-.79-1.1c-2.09-.25-6.93-.84-8.82-1.15-.87-.15-3.45-.71-3.45-.71h0A.71.71,0,0,0,323.61,219.79Z" style="fill:#03A84E"></path><path d="M354.56,241l.16.24a.46.46,0,0,0,.65.13l1.11-.73a.47.47,0,0,0,.14-.65l-.17-.25a.48.48,0,0,0-.65-.13h0s-1-1.44-1.28-1.94c-.66-1.07-2.21-3.88-2.88-5.1a.61.61,0,0,0-.87-.21l-.79.52a.6.6,0,0,0-.14.88c.86,1.1,2.84,3.62,3.57,4.65.34.47,1.28,1.93,1.28,1.93h0A.49.49,0,0,0,354.56,241Z" style="fill:#03A84E"></path><path d="M334.74,206.92l-.22-.34a.65.65,0,0,0-.9-.18l-1.54,1a.65.65,0,0,0-.18.9l.22.34a.65.65,0,0,0,.9.18h0s1.35,2,1.77,2.68c.91,1.49,3.06,5.38,4,7.06a.83.83,0,0,0,1.19.3l1.1-.73a.84.84,0,0,0,.2-1.22c-1.19-1.51-3.93-5-4.94-6.42-.47-.66-1.77-2.68-1.77-2.68h0A.65.65,0,0,0,334.74,206.92Z" style="fill:#03A84E"></path><path d="M362.28,239.08l.34.22a.64.64,0,0,0,.9-.17l1-1.53a.65.65,0,0,0-.18-.9l-.33-.22a.64.64,0,0,0-.9.17h0s-2-1.32-2.66-1.79c-1.41-1-4.88-3.79-6.38-5a.83.83,0,0,0-1.21.18l-.74,1.09a.85.85,0,0,0,.28,1.2c1.68.94,5.54,3.12,7,4,.68.43,2.66,1.8,2.66,1.8h0A.65.65,0,0,0,362.28,239.08Z" style="fill:#03A84E"></path><path d="M331.44,214.49l-.25-.17a.47.47,0,0,0-.65.13l-.74,1.1a.48.48,0,0,0,.12.66l.25.16a.47.47,0,0,0,.65-.13h0s1.45,1,1.92,1.3c1,.74,3.53,2.74,4.62,3.61a.6.6,0,0,0,.88-.13l.53-.79a.61.61,0,0,0-.2-.87c-1.22-.68-4-2.26-5.08-2.92-.49-.31-1.93-1.3-1.93-1.3h0A.46.46,0,0,0,331.44,214.49Z" style="fill:#03A84E"></path><path d="M327.92,235.79l-.31.21a.59.59,0,0,0-.17.83l.94,1.43a.61.61,0,0,0,.83.17l.31-.21a.6.6,0,0,0,.17-.84h0s1.85-1.25,2.48-1.64c1.38-.84,5-2.82,6.53-3.68A.77.77,0,0,0,339,231l-.67-1a.78.78,0,0,0-1.13-.18c-1.39,1.1-4.63,3.64-5.94,4.57-.6.44-2.48,1.64-2.48,1.64h0A.61.61,0,0,0,327.92,235.79Z" style="fill:#03A84E"></path><path d="M365.45,214.37l.37-.24a.72.72,0,0,0,.2-1l-1.11-1.68a.71.71,0,0,0-1-.2l-.37.24a.73.73,0,0,0-.2,1h0s-2.17,1.47-2.92,1.93c-1.62,1-5.86,3.34-7.7,4.35a.92.92,0,0,0-.33,1.31l.8,1.2a.92.92,0,0,0,1.33.21c1.65-1.3,5.46-4.29,7-5.39.71-.51,2.92-1.94,2.92-1.94h0A.71.71,0,0,0,365.45,214.37Z" style="fill:#03A84E"></path><path d="M327.85,227.73l-.28.06a.46.46,0,0,0-.37.55l.25,1.3a.47.47,0,0,0,.55.38l.29-.06a.47.47,0,0,0,.37-.55h0s1.71-.35,2.28-.44c1.24-.2,4.43-.56,5.81-.71a.6.6,0,0,0,.53-.72l-.18-.94a.61.61,0,0,0-.76-.46c-1.34.37-4.43,1.23-5.66,1.52-.56.13-2.27.44-2.27.44h0A.48.48,0,0,0,327.85,227.73Z" style="fill:#03A84E"></path><path d="M363.41,223.13l.29,0a.47.47,0,0,0,.37-.55l-.25-1.31a.47.47,0,0,0-.56-.37l-.28.05a.48.48,0,0,0-.38.55h0s-1.7.36-2.27.45c-1.25.19-4.44.55-5.82.7a.61.61,0,0,0-.53.72l.18.94a.61.61,0,0,0,.76.47c1.34-.38,4.43-1.24,5.66-1.53.57-.13,2.28-.44,2.28-.44h0A.46.46,0,0,0,363.41,223.13Z" style="fill:#03A84E"></path><path d="M334.69,239.63l-.17.24a.47.47,0,0,0,.13.65l1.1.75a.48.48,0,0,0,.66-.13l.16-.24a.46.46,0,0,0-.13-.65h0s1-1.46,1.3-1.93c.74-1,2.74-3.53,3.61-4.61a.6.6,0,0,0-.13-.88l-.79-.54a.61.61,0,0,0-.87.21c-.68,1.21-2.26,4-2.92,5.08-.31.49-1.3,1.92-1.3,1.92h0A.47.47,0,0,0,334.69,239.63Z" style="fill:#03A84E"></path><path d="M356.58,211.24l.16-.25a.46.46,0,0,0-.13-.65l-1.1-.74a.47.47,0,0,0-.65.12l-.17.25a.48.48,0,0,0,.13.65h0s-1,1.45-1.3,1.92c-.74,1-2.74,3.53-3.61,4.62a.6.6,0,0,0,.14.88l.78.53a.61.61,0,0,0,.87-.21c.68-1.21,2.26-4,2.93-5.07.3-.5,1.3-1.93,1.3-1.93h0A.47.47,0,0,0,356.58,211.24Z" style="fill:#03A84E"></path><g style="opacity:0.30000000000000004"><path d="M351.36,205l.08-.39a.64.64,0,0,0-.5-.75l-1.76-.36a.63.63,0,0,0-.75.49l-.08.39a.63.63,0,0,0,.49.75h0s-.44,2.32-.62,3.08c-.4,1.66-1.61,5.83-2.13,7.64a.82.82,0,0,0,.62,1l1.27.25a.82.82,0,0,0,1-.7c.22-1.87.74-6.18,1-7.86.13-.78.63-3.08.63-3.08h0A.64.64,0,0,0,351.36,205Z" style="fill:#fff"></path><path d="M339.69,246.52l-.09.41a.67.67,0,0,0,.53.79l1.86.38a.66.66,0,0,0,.79-.52l.08-.41a.66.66,0,0,0-.52-.79h0s.47-2.44.66-3.25c.42-1.74,1.69-6.14,2.24-8a.87.87,0,0,0-.66-1.09l-1.33-.27a.87.87,0,0,0-1,.75c-.24,2-.79,6.51-1.08,8.28-.14.82-.66,3.25-.66,3.25h0A.67.67,0,0,0,339.69,246.52Z" style="fill:#fff"></path><path d="M343.33,207.65l-.05-.28a.47.47,0,0,0-.55-.38l-1.31.26a.46.46,0,0,0-.37.55l.05.29a.47.47,0,0,0,.55.37h0s.36,1.7.45,2.28c.19,1.24.55,4.43.71,5.81a.59.59,0,0,0,.71.53l.94-.18a.61.61,0,0,0,.47-.76c-.38-1.34-1.24-4.43-1.53-5.66-.13-.56-.44-2.28-.44-2.28h0A.46.46,0,0,0,343.33,207.65Z" style="fill:#fff"></path><path d="M347.93,243.21l.06.29a.47.47,0,0,0,.55.37l1.3-.26a.47.47,0,0,0,.38-.55l-.06-.28a.47.47,0,0,0-.55-.38h0s-.35-1.7-.44-2.28c-.2-1.24-.56-4.43-.71-5.81a.61.61,0,0,0-.72-.53l-.93.18a.61.61,0,0,0-.47.76c.37,1.34,1.23,4.43,1.52,5.66.13.56.44,2.28.44,2.28h0A.47.47,0,0,0,347.93,243.21Z" style="fill:#fff"></path><path d="M362.94,230.11l.28.06a.47.47,0,0,0,.56-.37l.26-1.3a.48.48,0,0,0-.36-.56l-.29-.05a.47.47,0,0,0-.56.36h0s-1.71-.32-2.27-.46c-1.23-.3-4.31-1.19-5.64-1.57a.61.61,0,0,0-.77.46l-.19.93a.62.62,0,0,0,.52.73c1.38.16,4.57.55,5.81.75.58.1,2.28.47,2.28.47h0A.47.47,0,0,0,362.94,230.11Z" style="fill:#fff"></path><path d="M323.61,219.79l-.43-.09a.71.71,0,0,0-.84.56l-.41,2a.71.71,0,0,0,.56.84l.44.09a.71.71,0,0,0,.84-.56h0s2.59.5,3.45.71c1.86.45,6.54,1.79,8.57,2.38A.92.92,0,0,0,337,225l.28-1.41a.91.91,0,0,0-.79-1.1c-2.09-.25-6.93-.84-8.82-1.15-.87-.15-3.45-.71-3.45-.71h0A.71.71,0,0,0,323.61,219.79Z" style="fill:#fff"></path><path d="M354.56,241l.16.24a.46.46,0,0,0,.65.13l1.11-.73a.47.47,0,0,0,.14-.65l-.17-.25a.48.48,0,0,0-.65-.13h0s-1-1.44-1.28-1.94c-.66-1.07-2.21-3.88-2.88-5.1a.61.61,0,0,0-.87-.21l-.79.52a.6.6,0,0,0-.14.88c.86,1.1,2.84,3.62,3.57,4.65.34.47,1.28,1.93,1.28,1.93h0A.49.49,0,0,0,354.56,241Z" style="fill:#fff"></path><path d="M334.74,206.92l-.22-.34a.65.65,0,0,0-.9-.18l-1.54,1a.65.65,0,0,0-.18.9l.22.34a.65.65,0,0,0,.9.18h0s1.35,2,1.77,2.68c.91,1.49,3.06,5.38,4,7.06a.83.83,0,0,0,1.19.3l1.1-.73a.84.84,0,0,0,.2-1.22c-1.19-1.51-3.93-5-4.94-6.42-.47-.66-1.77-2.68-1.77-2.68h0A.65.65,0,0,0,334.74,206.92Z" style="fill:#fff"></path><path d="M362.28,239.08l.34.22a.64.64,0,0,0,.9-.17l1-1.53a.65.65,0,0,0-.18-.9l-.33-.22a.64.64,0,0,0-.9.17h0s-2-1.32-2.66-1.79c-1.41-1-4.88-3.79-6.38-5a.83.83,0,0,0-1.21.18l-.74,1.09a.85.85,0,0,0,.28,1.2c1.68.94,5.54,3.12,7,4,.68.43,2.66,1.8,2.66,1.8h0A.65.65,0,0,0,362.28,239.08Z" style="fill:#fff"></path><path d="M331.44,214.49l-.25-.17a.47.47,0,0,0-.65.13l-.74,1.1a.48.48,0,0,0,.12.66l.25.16a.47.47,0,0,0,.65-.13h0s1.45,1,1.92,1.3c1,.74,3.53,2.74,4.62,3.61a.6.6,0,0,0,.88-.13l.53-.79a.61.61,0,0,0-.2-.87c-1.22-.68-4-2.26-5.08-2.92-.49-.31-1.93-1.3-1.93-1.3h0A.46.46,0,0,0,331.44,214.49Z" style="fill:#fff"></path><path d="M327.92,235.79l-.31.21a.59.59,0,0,0-.17.83l.94,1.43a.61.61,0,0,0,.83.17l.31-.21a.6.6,0,0,0,.17-.84h0s1.85-1.25,2.48-1.64c1.38-.84,5-2.82,6.53-3.68A.77.77,0,0,0,339,231l-.67-1a.78.78,0,0,0-1.13-.18c-1.39,1.1-4.63,3.64-5.94,4.57-.6.44-2.48,1.64-2.48,1.64h0A.61.61,0,0,0,327.92,235.79Z" style="fill:#fff"></path><path d="M365.45,214.37l.37-.24a.72.72,0,0,0,.2-1l-1.11-1.68a.71.71,0,0,0-1-.2l-.37.24a.73.73,0,0,0-.2,1h0s-2.17,1.47-2.92,1.93c-1.62,1-5.86,3.34-7.7,4.35a.92.92,0,0,0-.33,1.31l.8,1.2a.92.92,0,0,0,1.33.21c1.65-1.3,5.46-4.29,7-5.39.71-.51,2.92-1.94,2.92-1.94h0A.71.71,0,0,0,365.45,214.37Z" style="fill:#fff"></path><path d="M327.85,227.73l-.28.06a.46.46,0,0,0-.37.55l.25,1.3a.47.47,0,0,0,.55.38l.29-.06a.47.47,0,0,0,.37-.55h0s1.71-.35,2.28-.44c1.24-.2,4.43-.56,5.81-.71a.6.6,0,0,0,.53-.72l-.18-.94a.61.61,0,0,0-.76-.46c-1.34.37-4.43,1.23-5.66,1.52-.56.13-2.27.44-2.27.44h0A.48.48,0,0,0,327.85,227.73Z" style="fill:#fff"></path><path d="M363.41,223.13l.29,0a.47.47,0,0,0,.37-.55l-.25-1.31a.47.47,0,0,0-.56-.37l-.28.05a.48.48,0,0,0-.38.55h0s-1.7.36-2.27.45c-1.25.19-4.44.55-5.82.7a.61.61,0,0,0-.53.72l.18.94a.61.61,0,0,0,.76.47c1.34-.38,4.43-1.24,5.66-1.53.57-.13,2.28-.44,2.28-.44h0A.46.46,0,0,0,363.41,223.13Z" style="fill:#fff"></path><path d="M334.69,239.63l-.17.24a.47.47,0,0,0,.13.65l1.1.75a.48.48,0,0,0,.66-.13l.16-.24a.46.46,0,0,0-.13-.65h0s1-1.46,1.3-1.93c.74-1,2.74-3.53,3.61-4.61a.6.6,0,0,0-.13-.88l-.79-.54a.61.61,0,0,0-.87.21c-.68,1.21-2.26,4-2.92,5.08-.31.49-1.3,1.92-1.3,1.92h0A.47.47,0,0,0,334.69,239.63Z" style="fill:#fff"></path><path d="M356.58,211.24l.16-.25a.46.46,0,0,0-.13-.65l-1.1-.74a.47.47,0,0,0-.65.12l-.17.25a.48.48,0,0,0,.13.65h0s-1,1.45-1.3,1.92c-.74,1-2.74,3.53-3.61,4.62a.6.6,0,0,0,.14.88l.78.53a.61.61,0,0,0,.87-.21c.68-1.21,2.26-4,2.93-5.07.3-.5,1.3-1.93,1.3-1.93h0A.47.47,0,0,0,356.58,211.24Z" style="fill:#fff"></path></g><path d="M340.64,213.16l1.45-.6a1,1,0,0,0,.51-1.39c-1.05-2-3.46-6.75-4.32-8.63,0-.1-.1-.21-.15-.34,1.14,2.75,4.17,8.39,3.35,9.67a1.44,1.44,0,0,1-2.33.21c.06.17.11.32.15.46A1,1,0,0,0,340.64,213.16Z" style="opacity:0.2"></path><path d="M323.27,236.26l0,0,.8-.33-.66-1.59-.8.32a.08.08,0,0,1,0,0Z" style="opacity:0.2"></path><path d="M321.08,234.86h0a.74.74,0,0,0,0,.36l.67,1.6a.6.6,0,0,0,.22.27h0c.13,0,0-.6-.23-1.21S321.21,234.81,321.08,234.86Z" style="opacity:0.2"></path><path d="M333.78,231.59l-.48-1.15a.79.79,0,0,0-1.09-.4c-1.61.83-5.33,2.73-6.83,3.41l-.26.12c2.17-.9,6.63-3.3,7.65-2.65a1.14,1.14,0,0,1,.16,1.84l.36-.12A.79.79,0,0,0,333.78,231.59Z" style="opacity:0.2"></path><path d="M348.8,205.12h0s-.07.38-.17.88l1.75.36.19-.88h0Z" style="opacity:0.2"></path><path d="M351.27,204.05v0a.65.65,0,0,0-.33-.17l-1.76-.36a.66.66,0,0,0-.37,0h0c0,.15.5.38,1.18.51S351.24,204.19,351.27,204.05Z" style="opacity:0.2"></path><path d="M346.71,216.88l1.27.25a.82.82,0,0,0,1-.7c.22-1.87.74-6.18,1-7.86,0-.08,0-.19.06-.3-.49,2.4-1,7.63-2.16,8.12a1.18,1.18,0,0,1-1.68-.92c0,.13-.08.26-.11.38A.82.82,0,0,0,346.71,216.88Z" style="opacity:0.2"></path><path d="M342.39,246.39h-.05s.08-.4.18-.93l-1.85-.37c-.11.52-.19.92-.19.92h-.05Z" style="opacity:0.2"></path><path d="M339.78,247.53h0a.62.62,0,0,0,.35.18l1.86.38a.65.65,0,0,0,.39,0v0c0-.15-.52-.39-1.24-.53S339.81,247.37,339.78,247.53Z" style="opacity:0.2"></path><path d="M344.58,234l-1.33-.27a.87.87,0,0,0-1,.75c-.24,2-.79,6.51-1.08,8.28,0,.09,0,.2-.06.32.51-2.53,1.07-8,2.28-8.57a1.25,1.25,0,0,1,1.77,1c0-.14.08-.28.11-.4A.87.87,0,0,0,344.58,234Z" style="opacity:0.2"></path><path d="M341.62,208.46h0l.14.65,1.29-.25c-.07-.37-.12-.66-.12-.66h0Z" style="opacity:0.2"></path><path d="M343,207h0a.61.61,0,0,0-.27,0l-1.31.26a.41.41,0,0,0-.24.13h0c0,.1.44.11.95,0S343,207.14,343,207Z" style="opacity:0.2"></path><path d="M343.52,217.08l.94-.18a.61.61,0,0,0,.47-.76c-.38-1.34-1.24-4.43-1.53-5.66,0-.06,0-.13,0-.21.34,1.77,1.46,5.49.82,6.15a.88.88,0,0,1-1.41-.15l0,.28A.59.59,0,0,0,343.52,217.08Z" style="opacity:0.2"></path><path d="M349.64,242.4h0s-.06-.28-.13-.65l-1.3.26.12.65h0Z" style="opacity:0.2"></path><path d="M348.26,243.83h0a.41.41,0,0,0,.27,0l1.3-.26a.45.45,0,0,0,.25-.12h0c0-.11-.45-.12-.95,0S348.24,243.73,348.26,243.83Z" style="opacity:0.2"></path><path d="M347.74,233.78l-.93.18a.61.61,0,0,0-.47.76c.37,1.34,1.23,4.43,1.52,5.66,0,.06,0,.13.05.22-.35-1.78-1.47-5.5-.83-6.16a.87.87,0,0,1,1.41.16c0-.11,0-.2,0-.29A.61.61,0,0,0,347.74,233.78Z" style="opacity:0.2"></path><path d="M362.85,228.22l0,0-.65-.12-.26,1.29.65.14v0Z" style="opacity:0.2"></path><path d="M363.64,230h0a.47.47,0,0,0,.13-.24l.26-1.3a.53.53,0,0,0,0-.28h0c-.11,0-.28.37-.38.87S363.53,230,363.64,230Z" style="opacity:0.2"></path><path d="M354.15,226.68l-.19.93a.62.62,0,0,0,.52.73c1.38.16,4.57.55,5.81.75l.22,0c-1.77-.35-5.63-.75-6-1.59a.87.87,0,0,1,.68-1.24l-.27-.08A.61.61,0,0,0,354.15,226.68Z" style="opacity:0.2"></path><path d="M323.75,222.66s0,0,0,0l1,.2.4-2-1-.21a.11.11,0,0,1,0,0Z" style="opacity:0.2"></path><path d="M322.55,219.89h0a.82.82,0,0,0-.19.37l-.41,2a.74.74,0,0,0,0,.42h0c.16,0,.41-.56.57-1.32S322.71,219.93,322.55,219.89Z" style="opacity:0.2"></path><path d="M337,225l.28-1.41a.91.91,0,0,0-.79-1.1c-2.09-.25-6.93-.84-8.82-1.15l-.33-.06c2.69.54,8.55,1.14,9.11,2.42a1.32,1.32,0,0,1-1,1.88l.43.12A.92.92,0,0,0,337,225Z" style="opacity:0.2"></path><path d="M355.83,239.57l0,0-.37-.55-1.1.73.36.55,0,0Z" style="opacity:0.2"></path><path d="M355.1,241.42h0a.42.42,0,0,0,.26-.08l1.11-.73a.6.6,0,0,0,.18-.21h0c-.06-.09-.45.06-.88.35S355,241.33,355.1,241.42Z" style="opacity:0.2"></path><path d="M350.77,232.34l-.79.52a.6.6,0,0,0-.14.88c.86,1.1,2.84,3.62,3.57,4.65l.13.18c-1-1.5-3.46-4.51-3.12-5.37a.87.87,0,0,1,1.36-.39l-.14-.26A.61.61,0,0,0,350.77,232.34Z" style="opacity:0.2"></path><path d="M333,208.86l0,0,.51.76,1.53-1-.5-.77,0,0Z" style="opacity:0.2"></path><path d="M334,206.3h0a.59.59,0,0,0-.36.11l-1.54,1a.73.73,0,0,0-.24.29v0c.08.12.63-.1,1.22-.49S334.07,206.42,334,206.3Z" style="opacity:0.2"></path><path d="M340,218.87l1.1-.73a.84.84,0,0,0,.2-1.22c-1.19-1.51-3.93-5-4.94-6.42l-.18-.26c1.39,2.09,4.78,6.25,4.31,7.43a1.21,1.21,0,0,1-1.88.55l.2.35A.83.83,0,0,0,340,218.87Z" style="opacity:0.2"></path><path d="M363.17,236.61s0,0,0,0l-.77-.5-1,1.51.76.52,0,0Z" style="opacity:0.2"></path><path d="M363.21,239.36h0a.7.7,0,0,0,.3-.24l1-1.53a.66.66,0,0,0,.11-.36h0c-.12-.08-.55.33-.94.92S363.09,239.28,363.21,239.36Z" style="opacity:0.2"></path><path d="M352.89,230.05l-.74,1.09a.85.85,0,0,0,.28,1.2c1.68.94,5.54,3.12,7,4l.26.17c-2.08-1.4-6.8-3.94-6.82-5.21,0-.58.34-1.35,1.53-1.22l-.32-.25A.83.83,0,0,0,352.89,230.05Z" style="opacity:0.2"></path><path d="M330.8,216.27s0,0,0,0l.55.37.74-1.1-.55-.37,0,0Z" style="opacity:0.2"></path><path d="M330.76,214.28h0a.48.48,0,0,0-.21.17l-.74,1.1a.42.42,0,0,0-.08.26h0c.09.06.4-.23.68-.66S330.85,214.34,330.76,214.28Z" style="opacity:0.2"></path><path d="M338.24,221l.53-.79a.61.61,0,0,0-.2-.87c-1.22-.68-4-2.26-5.08-2.92l-.19-.12c1.5,1,4.92,2.85,4.94,3.77,0,.42-.25,1-1.11.88l.23.18A.6.6,0,0,0,338.24,221Z" style="opacity:0.2"></path><path d="M329.71,237.42l0,0,.71-.47-.94-1.41c-.4.27-.71.46-.71.46l0,0Z" style="opacity:0.2"></path><path d="M327.34,236.49h0a.58.58,0,0,0,.1.33l.94,1.43a.64.64,0,0,0,.27.22h0c.11-.08-.09-.59-.45-1.14S327.46,236.41,327.34,236.49Z" style="opacity:0.2"></path><path d="M339,231l-.67-1a.78.78,0,0,0-1.13-.18c-1.39,1.1-4.63,3.64-5.94,4.57a1.91,1.91,0,0,1-.24.17c1.93-1.28,5.79-4.43,6.88-4a1.11,1.11,0,0,1,.51,1.74l.32-.18A.77.77,0,0,0,339,231Z" style="opacity:0.2"></path><path d="M363.33,212.45l0,.05-.83.56,1.1,1.66.84-.55,0,0Z" style="opacity:0.2"></path><path d="M366.12,213.55h0a.7.7,0,0,0-.11-.39l-1.11-1.68a.73.73,0,0,0-.32-.26h0c-.13.09.1.69.53,1.33S366,213.64,366.12,213.55Z" style="opacity:0.2"></path><path d="M352.4,220.09l.8,1.2a.92.92,0,0,0,1.33.21c1.65-1.3,5.46-4.29,7-5.39l.28-.2c-2.28,1.52-6.82,5.22-8.12,4.71a1.32,1.32,0,0,1-.59-2.05l-.38.21A.92.92,0,0,0,352.4,220.09Z" style="opacity:0.2"></path><path d="M328.66,229.44v0l.65-.13-.25-1.3-.65.12a0,0,0,0,1,0,0Z" style="opacity:0.2"></path><path d="M327.23,228.06h0a.53.53,0,0,0,0,.28l.25,1.3a.47.47,0,0,0,.13.25h0c.1,0,.11-.45,0-.95S327.34,228,327.23,228.06Z" style="opacity:0.2"></path><path d="M337.28,227.54l-.18-.94a.61.61,0,0,0-.76-.46c-1.34.37-4.43,1.23-5.66,1.52l-.21.05c1.77-.35,5.49-1.47,6.15-.83a.88.88,0,0,1-.15,1.41l.28,0A.6.6,0,0,0,337.28,227.54Z" style="opacity:0.2"></path><path d="M362.6,221.42v0l-.64.14.25,1.29.65-.12s0,0,0,0Z" style="opacity:0.2"></path><path d="M364,222.8h0a.42.42,0,0,0,0-.27l-.25-1.31a.47.47,0,0,0-.13-.24h0c-.11,0-.12.44,0,1S363.93,222.82,364,222.8Z" style="opacity:0.2"></path><path d="M354,223.32l.18.94a.61.61,0,0,0,.76.47c1.34-.38,4.43-1.24,5.66-1.53l.22,0c-1.78.34-5.5,1.46-6.16.82a.88.88,0,0,1,.16-1.41l-.29,0A.61.61,0,0,0,354,223.32Z" style="opacity:0.2"></path><path d="M336.47,240.27l0,0,.37-.56-1.1-.74-.37.55,0,0Z" style="opacity:0.2"></path><path d="M334.48,240.3h0a.43.43,0,0,0,.17.21l1.1.75a.53.53,0,0,0,.27.08h0c.06-.09-.23-.39-.66-.68S334.54,240.21,334.48,240.3Z" style="opacity:0.2"></path><path d="M341.22,232.83l-.79-.54a.61.61,0,0,0-.87.21c-.68,1.21-2.26,4-2.92,5.08l-.12.18c1-1.5,2.85-4.92,3.77-4.93.42,0,1,.24.88,1.1l.18-.22A.6.6,0,0,0,341.22,232.83Z" style="opacity:0.2"></path><path d="M354.79,210.6l0,0-.36.55,1.09.74.38-.55,0,0Z" style="opacity:0.2"></path><path d="M356.78,210.56h0a.45.45,0,0,0-.18-.21l-1.1-.74a.51.51,0,0,0-.26-.09h0c-.06.09.24.4.66.68S356.72,210.65,356.78,210.56Z" style="opacity:0.2"></path><path d="M350.05,218l.78.53a.61.61,0,0,0,.87-.21c.68-1.21,2.26-4,2.93-5.07a1.45,1.45,0,0,1,.12-.19c-1,1.5-2.85,4.92-3.77,4.93-.42,0-1-.24-.89-1.1l-.18.23A.6.6,0,0,0,350.05,218Z" style="opacity:0.2"></path><path d="M131,200.72v-.23a.37.37,0,0,0-.37-.36h-1a.36.36,0,0,0-.36.36v.23a.36.36,0,0,0,.36.36h0s0,1.34,0,1.79c0,1-.24,3.44-.32,4.51a.46.46,0,0,0,.46.5h.74a.46.46,0,0,0,.46-.5c-.08-1.07-.28-3.54-.32-4.51,0-.45,0-1.79,0-1.79h0A.37.37,0,0,0,131,200.72Z" style="fill:#03A84E"></path><path d="M129.58,201.08h0v.51h1v-.51h-1Z" style="opacity:0.2"></path><path d="M130.84,200.2h0a.37.37,0,0,0-.21-.06h-1a.32.32,0,0,0-.2.06h0c0,.08.32.15.72.15S130.84,200.28,130.84,200.2Z" style="opacity:0.2"></path><path d="M129.75,207.88h.74a.46.46,0,0,0,.46-.5c-.08-1.07-.28-3.54-.32-4.51v-.17c0,1.39.3,4.37-.28,4.78a.67.67,0,0,1-1-.33l0,.23A.46.46,0,0,0,129.75,207.88Z" style="opacity:0.2"></path><path d="M129.25,233.63v.29a.45.45,0,0,0,.45.45H131a.45.45,0,0,0,.45-.45v-.29a.46.46,0,0,0-.45-.46h0s0-1.69,0-2.25c0-1.23.29-4.34.4-5.68a.59.59,0,0,0-.59-.64h-.92a.59.59,0,0,0-.59.64c.11,1.34.36,4.45.4,5.68,0,.56,0,2.25,0,2.25h0A.46.46,0,0,0,129.25,233.63Z" style="fill:#03A84E"></path><path d="M131,233.18h0s0-.27,0-.64h-1.28c0,.37,0,.64,0,.64H131Z" style="opacity:0.2"></path><path d="M129.45,234.29h0a.52.52,0,0,0,.25.07H131a.52.52,0,0,0,.25-.07h0c0-.11-.4-.19-.9-.19S129.45,234.18,129.45,234.29Z" style="opacity:0.2"></path><path d="M130.81,224.6h-.92a.59.59,0,0,0-.59.64c.11,1.34.36,4.45.4,5.68,0,.06,0,.13,0,.21,0-1.75-.38-5.51.35-6a.85.85,0,0,1,1.32.41l0-.28A.59.59,0,0,0,130.81,224.6Z" style="opacity:0.2"></path><path d="M124.71,199.75l-.1-.26a.46.46,0,0,0-.6-.25l-1.2.5a.44.44,0,0,0-.24.59l.1.27a.46.46,0,0,0,.6.24h0s.67,1.56.86,2.09c.43,1.15,1.39,4.12,1.81,5.4a.58.58,0,0,0,.78.37l.86-.36a.58.58,0,0,0,.3-.81c-.62-1.2-2-4-2.55-5.1-.23-.51-.86-2.08-.86-2.08h0A.46.46,0,0,0,124.71,199.75Z" style="fill:#03A84E"></path><path d="M135.71,231l.09.21a.36.36,0,0,0,.48.2l1-.4a.36.36,0,0,0,.2-.48l-.09-.22a.38.38,0,0,0-.48-.2h0s-.54-1.25-.7-1.68c-.34-.93-1.12-3.33-1.45-4.37a.48.48,0,0,0-.64-.29l-.69.28a.47.47,0,0,0-.24.66c.49,1,1.64,3.22,2.05,4.12.19.41.7,1.68.7,1.68h0A.37.37,0,0,0,135.71,231Z" style="fill:#03A84E"></path><path d="M136.9,230.08h0s-.09-.2-.2-.47l-1,.39.19.48,0,0Z" style="opacity:0.2"></path><path d="M136.06,231.39h0a.38.38,0,0,0,.21,0l1-.4a.39.39,0,0,0,.17-.14h0c0-.08-.36,0-.73.13S136,231.32,136.06,231.39Z" style="opacity:0.2"></path><path d="M134.09,223.74l-.69.28a.47.47,0,0,0-.24.66c.49,1,1.64,3.22,2.05,4.12l.08.16c-.55-1.31-2-4-1.6-4.61a.69.69,0,0,1,1.11-.1l-.07-.22A.48.48,0,0,0,134.09,223.74Z" style="opacity:0.2"></path><path d="M145.85,216.88h.22a.36.36,0,0,0,.36-.36v-1a.36.36,0,0,0-.36-.36h-.22a.36.36,0,0,0-.36.36H143.7c-1,0-3.42-.23-4.49-.32a.46.46,0,0,0-.5.46v.73a.46.46,0,0,0,.5.47c1.07-.09,3.52-.28,4.49-.32.45,0,1.79,0,1.79,0h0A.36.36,0,0,0,145.85,216.88Z" style="fill:#03A84E"></path><path d="M145.49,215.47v0H145v1h.51v-1.05Z" style="opacity:0.2"></path><path d="M146.36,216.72h0a.34.34,0,0,0,.06-.2v-1a.32.32,0,0,0-.06-.2h0c-.08,0-.15.32-.15.72S146.28,216.72,146.36,216.72Z" style="opacity:0.2"></path><path d="M138.71,215.64v.73a.46.46,0,0,0,.5.47c1.07-.09,3.52-.28,4.49-.32h.17c-1.39,0-4.36.3-4.76-.28a.67.67,0,0,1,.32-1l-.22,0A.46.46,0,0,0,138.71,215.64Z" style="opacity:0.2"></path><path d="M114.85,215.6h-.22a.36.36,0,0,0-.36.36v1a.36.36,0,0,0,.36.36h.22a.36.36,0,0,0,.36-.36H117c1,0,3.42.24,4.49.32a.46.46,0,0,0,.5-.46v-.73a.46.46,0,0,0-.5-.47c-1.07.09-3.53.29-4.49.32-.45,0-1.79,0-1.79,0h0A.36.36,0,0,0,114.85,215.6Z" style="fill:#03A84E"></path><path d="M115.21,217v0h.51v-1h-.51v1Z" style="opacity:0.2"></path><path d="M114.33,215.76h0a.36.36,0,0,0-.06.2v1a.32.32,0,0,0,.06.2h0c.09,0,.15-.32.15-.72S114.42,215.76,114.33,215.76Z" style="opacity:0.2"></path><path d="M122,216.84v-.73a.46.46,0,0,0-.5-.47c-1.07.09-3.53.29-4.49.32h-.18c1.39,0,4.36-.29,4.77.29a.67.67,0,0,1-.33,1l.23,0A.46.46,0,0,0,122,216.84Z" style="opacity:0.2"></path><path d="M141.87,229.32l.2.2a.45.45,0,0,0,.64,0l.92-.92a.45.45,0,0,0,0-.64l-.2-.2a.46.46,0,0,0-.65,0h0s-1.21-1.19-1.59-1.6c-.84-.9-2.86-3.27-3.74-4.3a.58.58,0,0,0-.86,0l-.66.66a.58.58,0,0,0,0,.86c1,.88,3.4,2.9,4.3,3.74.41.38,1.6,1.59,1.6,1.59h0A.46.46,0,0,0,141.87,229.32Z" style="fill:#03A84E"></path><path d="M142.81,227.74l0,0-.46-.45-.91.9.46.46,0,0Z" style="opacity:0.2"></path><path d="M142.47,229.64h0a.37.37,0,0,0,.23-.12l.92-.92a.35.35,0,0,0,.12-.23h0c-.08-.07-.42.15-.77.51S142.4,229.57,142.47,229.64Z" style="opacity:0.2"></path><path d="M136.59,221.82l-.66.66a.58.58,0,0,0,0,.86c1,.88,3.4,2.9,4.3,3.74l.16.15c-1.25-1.25-4.17-3.64-4-4.52a.85.85,0,0,1,1.22-.64l-.19-.21A.58.58,0,0,0,136.59,221.82Z" style="opacity:0.2"></path><path d="M120.65,205l-.14-.14a.32.32,0,0,0-.46,0l-.66.65a.33.33,0,0,0,0,.47l.15.14a.32.32,0,0,0,.46,0h0s.86.84,1.14,1.14c.6.64,2,2.34,2.67,3.08a.42.42,0,0,0,.62,0l.47-.47a.42.42,0,0,0,0-.62c-.74-.62-2.43-2.07-3.08-2.66-.29-.28-1.14-1.15-1.14-1.15h0A.32.32,0,0,0,120.65,205Z" style="fill:#03A84E"></path><path d="M120,206.11h0l.33.32.65-.65-.33-.33h0Z" style="opacity:0.2"></path><path d="M120.22,204.75h0a.26.26,0,0,0-.17.09l-.66.65a.32.32,0,0,0-.09.17h0c0,.05.3-.11.55-.36S120.27,204.81,120.22,204.75Z" style="opacity:0.2"></path><path d="M124.43,210.34l.47-.47a.42.42,0,0,0,0-.62c-.74-.62-2.43-2.07-3.08-2.66l-.11-.11c.89.89,3,2.6,2.87,3.23a.6.6,0,0,1-.87.45l.13.16A.42.42,0,0,0,124.43,210.34Z" style="opacity:0.2"></path><path d="M143.51,222.09l.18.08a.3.3,0,0,0,.39-.17l.34-.8a.31.31,0,0,0-.17-.4l-.18-.07a.31.31,0,0,0-.4.17h0l-1.39-.58c-.74-.34-2.6-1.29-3.41-1.71a.4.4,0,0,0-.54.2l-.24.58a.39.39,0,0,0,.25.52c.86.28,2.84.92,3.61,1.21.35.13,1.39.58,1.39.58h0A.3.3,0,0,0,143.51,222.09Z" style="fill:#03A84E"></path><path d="M143.69,220.88l0,0-.39-.17-.33.8.39.17v0Z" style="opacity:0.2"></path><path d="M144,222.14h0a.26.26,0,0,0,.11-.14l.34-.8a.33.33,0,0,0,0-.17h0c-.07,0-.22.2-.35.51S143.9,222.11,144,222.14Z" style="opacity:0.2"></path><path d="M138.33,218.81l-.24.58a.39.39,0,0,0,.25.52c.86.28,2.84.92,3.61,1.21l.14,0c-1.09-.45-3.51-1.18-3.64-1.76-.06-.27,0-.66.59-.71l-.17-.09A.4.4,0,0,0,138.33,218.81Z" style="opacity:0.2"></path><path d="M114.7,208.57l-.26-.11a.46.46,0,0,0-.6.24l-.49,1.2a.46.46,0,0,0,.25.6l.26.11a.47.47,0,0,0,.6-.25h0s1.57.63,2.08.86c1.12.51,3.89,1.93,5.1,2.55a.58.58,0,0,0,.81-.3l.35-.86a.57.57,0,0,0-.36-.78c-1.29-.42-4.25-1.38-5.4-1.8-.53-.2-2.09-.87-2.09-.87h0A.44.44,0,0,0,114.7,208.57Z" style="fill:#03A84E"></path><path d="M114.44,210.39l0,0,.59.24.49-1.19-.59-.25a0,0,0,0,0,0,0Z" style="opacity:0.2"></path><path d="M114,208.5h0a.55.55,0,0,0-.17.2l-.49,1.2a.48.48,0,0,0,0,.26h0c.1,0,.33-.3.52-.76S114.12,208.54,114,208.5Z" style="opacity:0.2"></path><path d="M122.45,213.47l.35-.86a.57.57,0,0,0-.36-.78c-1.29-.42-4.25-1.38-5.4-1.8l-.21-.08c1.63.67,5.24,1.76,5.44,2.63.09.4,0,1-.89,1.06l.26.13A.58.58,0,0,0,122.45,213.47Z" style="opacity:0.2"></path><path d="M117.27,227.76l-.2.2a.45.45,0,0,0,0,.64l.92.92a.45.45,0,0,0,.64,0l.2-.2a.46.46,0,0,0,0-.65h0s1.19-1.21,1.6-1.59c.9-.84,3.27-2.86,4.3-3.74a.59.59,0,0,0,0-.86l-.66-.66a.58.58,0,0,0-.86,0c-.88,1-2.9,3.4-3.74,4.3-.38.41-1.59,1.6-1.59,1.6h0A.46.46,0,0,0,117.27,227.76Z" style="fill:#03A84E"></path><path d="M118.85,228.7l0,0,.45-.46-.9-.9-.46.45,0,0Z" style="opacity:0.2"></path><path d="M117,228.36h0a.41.41,0,0,0,.13.23l.92.92a.35.35,0,0,0,.23.12h0c.07-.07-.15-.42-.51-.77S117,228.29,117,228.36Z" style="opacity:0.2"></path><path d="M124.77,222.48l-.66-.66a.58.58,0,0,0-.86,0c-.88,1-2.9,3.4-3.74,4.3l-.15.16c1.24-1.25,3.64-4.17,4.52-4a.85.85,0,0,1,.64,1.22l.21-.19A.59.59,0,0,0,124.77,222.48Z" style="opacity:0.2"></path><path d="M141.28,206.4l.14-.14a.31.31,0,0,0,0-.45l-.64-.64a.31.31,0,0,0-.45,0l-.14.14a.31.31,0,0,0,0,.45h0s-.83.85-1.12,1.12c-.63.58-2.29,2-3,2.61a.42.42,0,0,0,0,.61l.46.46a.42.42,0,0,0,.61,0c.61-.73,2-2.39,2.61-3,.27-.29,1.12-1.12,1.12-1.12h0A.31.31,0,0,0,141.28,206.4Z" style="fill:#03A84E"></path><path d="M140.17,205.74l0,0-.32.32.64.64.32-.32,0,0Z" style="opacity:0.2"></path><path d="M141.51,206h0a.26.26,0,0,0-.09-.16l-.64-.64a.29.29,0,0,0-.16-.09h0c-.05,0,.11.3.35.54S141.46,206,141.51,206Z" style="opacity:0.2"></path><path d="M136,210.1l.46.46a.42.42,0,0,0,.61,0c.61-.73,2-2.39,2.61-3l.11-.11c-.87.87-2.55,2.92-3.17,2.81a.59.59,0,0,1-.44-.85l-.16.12A.42.42,0,0,0,136,210.1Z" style="opacity:0.2"></path><path d="M115.61,221.15l-.21.09a.35.35,0,0,0-.19.47l.39.94a.35.35,0,0,0,.47.2l.21-.09a.35.35,0,0,0,.19-.47h0s1.23-.53,1.65-.68c.91-.34,3.25-1.1,4.27-1.42a.48.48,0,0,0,.29-.63l-.28-.67a.46.46,0,0,0-.64-.24c-1,.49-3.15,1.61-4,2-.41.19-1.65.69-1.65.69h0A.36.36,0,0,0,115.61,221.15Z" style="fill:#03A84E"></path><path d="M146.84,210.61l.26-.11a.46.46,0,0,0,.25-.6l-.5-1.2a.44.44,0,0,0-.59-.24l-.27.11a.44.44,0,0,0-.24.59h0s-1.56.67-2.09.87c-1.15.42-4.12,1.38-5.4,1.8a.59.59,0,0,0-.37.78l.36.86a.58.58,0,0,0,.81.3c1.2-.62,4-2,5.1-2.55.51-.23,2.08-.86,2.08-.86h0A.47.47,0,0,0,146.84,210.61Z" style="fill:#03A84E"></path><path d="M145.74,209.13a0,0,0,0,0,0,0l-.6.25.49,1.19.6-.24,0,0Z" style="opacity:0.2"></path><path d="M147.37,210.17h0a.39.39,0,0,0,0-.26l-.5-1.2a.41.41,0,0,0-.17-.2h0c-.1,0,0,.45.17.91S147.27,210.21,147.37,210.17Z" style="opacity:0.2"></path><path d="M137.89,212.61l.36.86a.58.58,0,0,0,.81.3c1.2-.62,4-2,5.1-2.55l.2-.09c-1.63.68-5,2.46-5.71,2a.85.85,0,0,1-.12-1.37l-.27.09A.59.59,0,0,0,137.89,212.61Z" style="opacity:0.2"></path><path d="M123.4,230.14l-.09.2a.37.37,0,0,0,.2.48l.94.39a.36.36,0,0,0,.47-.2l.09-.21a.36.36,0,0,0-.19-.47h0s.49-1.24.68-1.65c.4-.88,1.52-3.07,2-4a.47.47,0,0,0-.23-.65l-.68-.28a.47.47,0,0,0-.62.29c-.33,1-1.09,3.36-1.43,4.27-.15.42-.68,1.65-.68,1.65h0A.35.35,0,0,0,123.4,230.14Z" style="fill:#03A84E"></path><path d="M124.84,230.34h0l.19-.47-.94-.39c-.11.27-.2.47-.2.47h0Z" style="opacity:0.2"></path><path d="M123.35,230.67h0a.32.32,0,0,0,.16.14l.94.39a.38.38,0,0,0,.21,0h0c0-.08-.24-.26-.61-.41S123.38,230.6,123.35,230.67Z" style="opacity:0.2"></path><path d="M127.28,224l-.68-.28a.47.47,0,0,0-.62.29c-.33,1-1.09,3.36-1.43,4.27a.64.64,0,0,1-.06.16c.53-1.28,1.39-4.14,2.08-4.29.32-.07.78,0,.84.7l.1-.2A.47.47,0,0,0,127.28,224Z" style="opacity:0.2"></path><path d="M138,200.6l.11-.27a.44.44,0,0,0-.24-.59l-1.2-.5a.46.46,0,0,0-.6.25l-.11.26a.47.47,0,0,0,.25.6h0s-.63,1.57-.86,2.08c-.51,1.12-1.93,3.9-2.55,5.1a.58.58,0,0,0,.3.81l.86.36a.59.59,0,0,0,.78-.37c.42-1.28,1.38-4.25,1.8-5.4.2-.53.87-2.09.87-2.09h0A.44.44,0,0,0,138,200.6Z" style="fill:#03A84E"></path><path d="M136.2,200.33l0,0-.24.6,1.19.49.25-.6h0Z" style="opacity:0.2"></path><path d="M138.09,199.91h0a.41.41,0,0,0-.2-.17l-1.2-.5a.48.48,0,0,0-.26,0h0c0,.1.3.33.76.52S138.05,200,138.09,199.91Z" style="opacity:0.2"></path><path d="M133.12,208.34l.86.36a.59.59,0,0,0,.78-.37c.42-1.28,1.38-4.25,1.8-5.4l.08-.2c-.67,1.62-1.76,5.24-2.63,5.43-.4.09-1,0-1.06-.88l-.13.25A.58.58,0,0,0,133.12,208.34Z" style="opacity:0.2"></path><path d="M123.24,200.85h0l.25.6,1.19-.49-.24-.6,0,0Z" style="opacity:0.2"></path><path d="M124.28,199.22h0a.48.48,0,0,0-.26,0l-1.2.5a.41.41,0,0,0-.2.17h0c0,.1.44,0,.91-.17S124.32,199.32,124.28,199.22Z" style="opacity:0.2"></path><circle cx="130.35" cy="216.24" r="8.82" style="fill:#03A84E"></circle><path d="M136.05,209.51a8.82,8.82,0,0,1-12.43,12.43,8.82,8.82,0,1,0,12.43-12.43Z" style="opacity:0.2"></path><path d="M133,203.88l.05-.23a.38.38,0,0,0-.29-.44l-1-.21a.38.38,0,0,0-.44.29l0,.23a.37.37,0,0,0,.29.44h0s-.26,1.37-.37,1.82c-.23,1-.94,3.44-1.25,4.5a.49.49,0,0,0,.37.61l.74.15a.48.48,0,0,0,.58-.41c.13-1.11.44-3.65.6-4.64.08-.46.37-1.81.37-1.81h0A.37.37,0,0,0,133,203.88Z" style="fill:#03A84E"></path><path d="M126.16,228.37l0,.24a.4.4,0,0,0,.31.47l1.1.22A.4.4,0,0,0,128,229l0-.24a.4.4,0,0,0-.31-.46h0s.27-1.44.39-1.92c.25-1,1-3.62,1.32-4.75a.52.52,0,0,0-.39-.64l-.78-.16a.5.5,0,0,0-.61.44c-.14,1.16-.47,3.84-.64,4.89-.08.48-.39,1.91-.39,1.91h0A.41.41,0,0,0,126.16,228.37Z" style="fill:#03A84E"></path><path d="M128.31,205.45l0-.17a.27.27,0,0,0-.32-.22l-.78.15a.28.28,0,0,0-.21.33l0,.17a.27.27,0,0,0,.32.22h0s.21,1,.26,1.34c.12.73.33,2.61.42,3.43a.36.36,0,0,0,.43.31l.55-.11a.35.35,0,0,0,.27-.44c-.22-.79-.73-2.62-.89-3.34-.08-.33-.27-1.34-.27-1.34h0A.28.28,0,0,0,128.31,205.45Z" style="fill:#03A84E"></path><path d="M131,226.42l0,.17a.28.28,0,0,0,.32.22l.77-.15a.28.28,0,0,0,.22-.33l0-.17a.28.28,0,0,0-.33-.22h0s-.2-1-.26-1.34c-.11-.74-.32-2.62-.41-3.43a.36.36,0,0,0-.43-.31l-.55.1a.36.36,0,0,0-.28.45c.23.79.73,2.61.9,3.34.08.33.26,1.34.26,1.34h0A.28.28,0,0,0,131,226.42Z" style="fill:#03A84E"></path><path d="M139.87,218.69l.17,0a.28.28,0,0,0,.33-.22l.15-.77a.26.26,0,0,0-.21-.32l-.17,0a.28.28,0,0,0-.33.22h0s-1-.2-1.34-.28c-.72-.17-2.54-.69-3.33-.92a.35.35,0,0,0-.45.27l-.11.55a.37.37,0,0,0,.31.43c.81.09,2.69.32,3.42.44.34.06,1.35.28,1.35.28h0A.27.27,0,0,0,139.87,218.69Z" style="fill:#03A84E"></path><path d="M116.69,212.61l-.26-.05a.42.42,0,0,0-.5.32l-.24,1.17a.44.44,0,0,0,.33.5l.26,0a.42.42,0,0,0,.5-.33h0s1.53.3,2,.42c1.1.26,3.86,1.06,5,1.4a.55.55,0,0,0,.69-.41l.17-.83a.55.55,0,0,0-.47-.65c-1.24-.15-4.09-.5-5.2-.68-.51-.09-2-.42-2-.42h0A.42.42,0,0,0,116.69,212.61Z" style="fill:#03A84E"></path><path d="M134.93,225.1l.1.14a.27.27,0,0,0,.38.08l.66-.43a.28.28,0,0,0,.07-.39l-.09-.14a.28.28,0,0,0-.38-.08h0s-.58-.85-.76-1.14c-.39-.63-1.3-2.29-1.7-3a.35.35,0,0,0-.51-.12l-.47.31a.36.36,0,0,0-.08.52c.51.64,1.67,2.13,2.1,2.73.2.28.76,1.15.76,1.15h0A.27.27,0,0,0,134.93,225.1Z" style="fill:#03A84E"></path><path d="M123.25,205l-.14-.2a.37.37,0,0,0-.53-.11l-.9.6a.38.38,0,0,0-.11.53l.13.2a.39.39,0,0,0,.53.11h0s.8,1.17,1,1.58c.53.87,1.8,3.17,2.35,4.16a.49.49,0,0,0,.7.17l.65-.43a.49.49,0,0,0,.12-.71c-.7-.9-2.32-3-2.92-3.79-.27-.39-1-1.58-1-1.58h0A.4.4,0,0,0,123.25,205Z" style="fill:#03A84E"></path><path d="M139.49,224l.19.13a.39.39,0,0,0,.54-.1l.6-.9a.38.38,0,0,0-.1-.53l-.2-.13a.38.38,0,0,0-.53.1h0s-1.19-.78-1.57-1.06c-.83-.6-2.87-2.23-3.76-2.94a.49.49,0,0,0-.71.11l-.44.64a.5.5,0,0,0,.17.71c1,.55,3.26,1.84,4.14,2.38.4.25,1.56,1.06,1.56,1.06h0A.38.38,0,0,0,139.49,224Z" style="fill:#03A84E"></path><path d="M121.3,209.48l-.15-.1a.28.28,0,0,0-.38.08l-.44.65a.27.27,0,0,0,.08.38l.14.1a.27.27,0,0,0,.38-.07h0s.86.56,1.14.76c.6.44,2.08,1.62,2.72,2.13a.35.35,0,0,0,.52-.08l.31-.46a.37.37,0,0,0-.12-.52c-.71-.4-2.36-1.33-3-1.72-.29-.18-1.14-.77-1.14-.77h0A.27.27,0,0,0,121.3,209.48Z" style="fill:#03A84E"></path><path d="M119.22,222l-.18.13a.35.35,0,0,0-.1.49l.55.84a.37.37,0,0,0,.5.1l.18-.13a.35.35,0,0,0,.1-.49h0s1.09-.74,1.46-1c.81-.49,2.93-1.66,3.85-2.17a.45.45,0,0,0,.16-.65l-.39-.6a.47.47,0,0,0-.67-.11c-.82.65-2.73,2.14-3.5,2.7-.36.25-1.46,1-1.46,1h0A.37.37,0,0,0,119.22,222Z" style="fill:#03A84E"></path><path d="M141.35,209.41l.22-.14a.42.42,0,0,0,.12-.58l-.66-1a.43.43,0,0,0-.58-.12l-.21.15a.41.41,0,0,0-.12.58h0s-1.28.87-1.73,1.14c-.95.58-3.45,2-4.54,2.56a.55.55,0,0,0-.19.77l.47.71a.54.54,0,0,0,.78.13c1-.77,3.23-2.53,4.14-3.18.42-.3,1.72-1.14,1.72-1.14h0A.42.42,0,0,0,141.35,209.41Z" style="fill:#03A84E"></path><path d="M119.19,217.29l-.17,0a.28.28,0,0,0-.22.33l.15.77a.27.27,0,0,0,.32.22l.17,0a.27.27,0,0,0,.22-.32h0s1-.21,1.34-.26c.74-.12,2.62-.33,3.43-.42a.36.36,0,0,0,.32-.42l-.11-.55a.36.36,0,0,0-.45-.28c-.79.22-2.61.73-3.34.9l-1.34.26h0A.27.27,0,0,0,119.19,217.29Z" style="fill:#03A84E"></path><path d="M140.15,214.58l.17,0a.28.28,0,0,0,.22-.33l-.15-.77a.27.27,0,0,0-.32-.22l-.17,0a.28.28,0,0,0-.22.33h0s-1,.21-1.35.26c-.73.12-2.61.33-3.43.42a.36.36,0,0,0-.31.42l.11.55a.36.36,0,0,0,.45.28c.79-.22,2.61-.73,3.33-.9.34-.08,1.35-.26,1.35-.26h0A.27.27,0,0,0,140.15,214.58Z" style="fill:#03A84E"></path><path d="M123.21,224.3l-.09.15a.27.27,0,0,0,.07.38l.65.44a.28.28,0,0,0,.39-.07l.1-.15a.28.28,0,0,0-.08-.38h0s.56-.86.77-1.14c.43-.6,1.61-2.08,2.13-2.72a.36.36,0,0,0-.08-.52l-.47-.31a.35.35,0,0,0-.51.12c-.4.72-1.33,2.36-1.72,3-.19.3-.77,1.14-.77,1.14h0A.28.28,0,0,0,123.21,224.3Z" style="fill:#03A84E"></path><path d="M136.12,207.56l.1-.14a.27.27,0,0,0-.08-.38l-.65-.44a.26.26,0,0,0-.38.07l-.1.14a.29.29,0,0,0,.08.39h0s-.57.86-.77,1.13c-.44.6-1.62,2.08-2.13,2.72a.36.36,0,0,0,.08.52l.47.32a.35.35,0,0,0,.51-.12c.4-.72,1.33-2.37,1.72-3,.18-.29.77-1.13.77-1.13h0A.28.28,0,0,0,136.12,207.56Z" style="fill:#03A84E"></path><g style="opacity:0.30000000000000004"><path d="M133,203.88l.05-.23a.38.38,0,0,0-.29-.44l-1-.21a.38.38,0,0,0-.44.29l0,.23a.37.37,0,0,0,.29.44h0s-.26,1.37-.37,1.82c-.23,1-.94,3.44-1.25,4.5a.49.49,0,0,0,.37.61l.74.15a.48.48,0,0,0,.58-.41c.13-1.11.44-3.65.6-4.64.08-.46.37-1.81.37-1.81h0A.37.37,0,0,0,133,203.88Z" style="fill:#fff"></path><path d="M126.16,228.37l0,.24a.4.4,0,0,0,.31.47l1.1.22A.4.4,0,0,0,128,229l0-.24a.4.4,0,0,0-.31-.46h0s.27-1.44.39-1.92c.25-1,1-3.62,1.32-4.75a.52.52,0,0,0-.39-.64l-.78-.16a.5.5,0,0,0-.61.44c-.14,1.16-.47,3.84-.64,4.89-.08.48-.39,1.91-.39,1.91h0A.41.41,0,0,0,126.16,228.37Z" style="fill:#fff"></path><path d="M128.31,205.45l0-.17a.27.27,0,0,0-.32-.22l-.78.15a.28.28,0,0,0-.21.33l0,.17a.27.27,0,0,0,.32.22h0s.21,1,.26,1.34c.12.73.33,2.61.42,3.43a.36.36,0,0,0,.43.31l.55-.11a.35.35,0,0,0,.27-.44c-.22-.79-.73-2.62-.89-3.34-.08-.33-.27-1.34-.27-1.34h0A.28.28,0,0,0,128.31,205.45Z" style="fill:#fff"></path><path d="M131,226.42l0,.17a.28.28,0,0,0,.32.22l.77-.15a.28.28,0,0,0,.22-.33l0-.17a.28.28,0,0,0-.33-.22h0s-.2-1-.26-1.34c-.11-.74-.32-2.62-.41-3.43a.36.36,0,0,0-.43-.31l-.55.1a.36.36,0,0,0-.28.45c.23.79.73,2.61.9,3.34.08.33.26,1.34.26,1.34h0A.28.28,0,0,0,131,226.42Z" style="fill:#fff"></path><path d="M139.87,218.69l.17,0a.28.28,0,0,0,.33-.22l.15-.77a.26.26,0,0,0-.21-.32l-.17,0a.28.28,0,0,0-.33.22h0s-1-.2-1.34-.28c-.72-.17-2.54-.69-3.33-.92a.35.35,0,0,0-.45.27l-.11.55a.37.37,0,0,0,.31.43c.81.09,2.69.32,3.42.44.34.06,1.35.28,1.35.28h0A.27.27,0,0,0,139.87,218.69Z" style="fill:#fff"></path><path d="M116.69,212.61l-.26-.05a.42.42,0,0,0-.5.32l-.24,1.17a.44.44,0,0,0,.33.5l.26,0a.42.42,0,0,0,.5-.33h0s1.53.3,2,.42c1.1.26,3.86,1.06,5,1.4a.55.55,0,0,0,.69-.41l.17-.83a.55.55,0,0,0-.47-.65c-1.24-.15-4.09-.5-5.2-.68-.51-.09-2-.42-2-.42h0A.42.42,0,0,0,116.69,212.61Z" style="fill:#fff"></path><path d="M134.93,225.1l.1.14a.27.27,0,0,0,.38.08l.66-.43a.28.28,0,0,0,.07-.39l-.09-.14a.28.28,0,0,0-.38-.08h0s-.58-.85-.76-1.14c-.39-.63-1.3-2.29-1.7-3a.35.35,0,0,0-.51-.12l-.47.31a.36.36,0,0,0-.08.52c.51.64,1.67,2.13,2.1,2.73.2.28.76,1.15.76,1.15h0A.27.27,0,0,0,134.93,225.1Z" style="fill:#fff"></path><path d="M123.25,205l-.14-.2a.37.37,0,0,0-.53-.11l-.9.6a.38.38,0,0,0-.11.53l.13.2a.39.39,0,0,0,.53.11h0s.8,1.17,1,1.58c.53.87,1.8,3.17,2.35,4.16a.49.49,0,0,0,.7.17l.65-.43a.49.49,0,0,0,.12-.71c-.7-.9-2.32-3-2.92-3.79-.27-.39-1-1.58-1-1.58h0A.4.4,0,0,0,123.25,205Z" style="fill:#fff"></path><path d="M139.49,224l.19.13a.39.39,0,0,0,.54-.1l.6-.9a.38.38,0,0,0-.1-.53l-.2-.13a.38.38,0,0,0-.53.1h0s-1.19-.78-1.57-1.06c-.83-.6-2.87-2.23-3.76-2.94a.49.49,0,0,0-.71.11l-.44.64a.5.5,0,0,0,.17.71c1,.55,3.26,1.84,4.14,2.38.4.25,1.56,1.06,1.56,1.06h0A.38.38,0,0,0,139.49,224Z" style="fill:#fff"></path><path d="M121.3,209.48l-.15-.1a.28.28,0,0,0-.38.08l-.44.65a.27.27,0,0,0,.08.38l.14.1a.27.27,0,0,0,.38-.07h0s.86.56,1.14.76c.6.44,2.08,1.62,2.72,2.13a.35.35,0,0,0,.52-.08l.31-.46a.37.37,0,0,0-.12-.52c-.71-.4-2.36-1.33-3-1.72-.29-.18-1.14-.77-1.14-.77h0A.27.27,0,0,0,121.3,209.48Z" style="fill:#fff"></path><path d="M119.22,222l-.18.13a.35.35,0,0,0-.1.49l.55.84a.37.37,0,0,0,.5.1l.18-.13a.35.35,0,0,0,.1-.49h0s1.09-.74,1.46-1c.81-.49,2.93-1.66,3.85-2.17a.45.45,0,0,0,.16-.65l-.39-.6a.47.47,0,0,0-.67-.11c-.82.65-2.73,2.14-3.5,2.7-.36.25-1.46,1-1.46,1h0A.37.37,0,0,0,119.22,222Z" style="fill:#fff"></path><path d="M141.35,209.41l.22-.14a.42.42,0,0,0,.12-.58l-.66-1a.43.43,0,0,0-.58-.12l-.21.15a.41.41,0,0,0-.12.58h0s-1.28.87-1.73,1.14c-.95.58-3.45,2-4.54,2.56a.55.55,0,0,0-.19.77l.47.71a.54.54,0,0,0,.78.13c1-.77,3.23-2.53,4.14-3.18.42-.3,1.72-1.14,1.72-1.14h0A.42.42,0,0,0,141.35,209.41Z" style="fill:#fff"></path><path d="M119.19,217.29l-.17,0a.28.28,0,0,0-.22.33l.15.77a.27.27,0,0,0,.32.22l.17,0a.27.27,0,0,0,.22-.32h0s1-.21,1.34-.26c.74-.12,2.62-.33,3.43-.42a.36.36,0,0,0,.32-.42l-.11-.55a.36.36,0,0,0-.45-.28c-.79.22-2.61.73-3.34.9l-1.34.26h0A.27.27,0,0,0,119.19,217.29Z" style="fill:#fff"></path><path d="M140.15,214.58l.17,0a.28.28,0,0,0,.22-.33l-.15-.77a.27.27,0,0,0-.32-.22l-.17,0a.28.28,0,0,0-.22.33h0s-1,.21-1.35.26c-.73.12-2.61.33-3.43.42a.36.36,0,0,0-.31.42l.11.55a.36.36,0,0,0,.45.28c.79-.22,2.61-.73,3.33-.9.34-.08,1.35-.26,1.35-.26h0A.27.27,0,0,0,140.15,214.58Z" style="fill:#fff"></path><path d="M123.21,224.3l-.09.15a.27.27,0,0,0,.07.38l.65.44a.28.28,0,0,0,.39-.07l.1-.15a.28.28,0,0,0-.08-.38h0s.56-.86.77-1.14c.43-.6,1.61-2.08,2.13-2.72a.36.36,0,0,0-.08-.52l-.47-.31a.35.35,0,0,0-.51.12c-.4.72-1.33,2.36-1.72,3-.19.3-.77,1.14-.77,1.14h0A.28.28,0,0,0,123.21,224.3Z" style="fill:#fff"></path><path d="M136.12,207.56l.1-.14a.27.27,0,0,0-.08-.38l-.65-.44a.26.26,0,0,0-.38.07l-.1.14a.29.29,0,0,0,.08.39h0s-.57.86-.77,1.13c-.44.6-1.62,2.08-2.13,2.72a.36.36,0,0,0,.08.52l.47.32a.35.35,0,0,0,.51-.12c.4-.72,1.33-2.37,1.72-3,.18-.29.77-1.13.77-1.13h0A.28.28,0,0,0,136.12,207.56Z" style="fill:#fff"></path></g><path d="M126.72,208.7l.86-.36a.58.58,0,0,0,.3-.81c-.62-1.2-2-4-2.55-5.1l-.09-.2c.68,1.63,2.46,5,2,5.71a.85.85,0,0,1-1.37.12l.09.27A.58.58,0,0,0,126.72,208.7Z" style="opacity:0.2"></path><path d="M116.48,222.32a0,0,0,0,0,0,0l.47-.2-.39-.93-.47.19s0,0,0,0Z" style="opacity:0.2"></path><path d="M115.19,221.5h0a.31.31,0,0,0,0,.21l.39.94a.37.37,0,0,0,.13.17h0c.07,0,0-.36-.14-.72S115.27,221.46,115.19,221.5Z" style="opacity:0.2"></path><path d="M122.68,219.56l-.28-.67a.46.46,0,0,0-.64-.24c-1,.49-3.15,1.61-4,2l-.16.07c1.28-.53,3.91-1.94,4.51-1.56a.67.67,0,0,1,.1,1.08l.21-.06A.48.48,0,0,0,122.68,219.56Z" style="opacity:0.2"></path><path d="M131.54,204h0s0,.23-.1.52l1,.21c.06-.29.11-.51.11-.51h0Z" style="opacity:0.2"></path><path d="M133,203.32h0a.45.45,0,0,0-.19-.11l-1-.21a.41.41,0,0,0-.22,0h0c0,.08.29.22.69.3S133,203.41,133,203.32Z" style="opacity:0.2"></path><path d="M130.31,210.89l.74.15a.48.48,0,0,0,.58-.41c.13-1.11.44-3.65.6-4.64l0-.17c-.28,1.41-.59,4.49-1.27,4.78-.3.14-.79.12-1-.54l-.06.22A.49.49,0,0,0,130.31,210.89Z" style="opacity:0.2"></path><path d="M127.75,228.29h0s0-.24.1-.55l-1.08-.22-.12.54h0Z" style="opacity:0.2"></path><path d="M126.22,229h0a.43.43,0,0,0,.2.11l1.1.22a.36.36,0,0,0,.23,0h0c0-.09-.31-.23-.73-.31S126.24,228.87,126.22,229Z" style="opacity:0.2"></path><path d="M129.05,221l-.78-.16a.5.5,0,0,0-.61.44c-.14,1.16-.47,3.84-.64,4.89l0,.18c.3-1.49.63-4.74,1.34-5.05a.73.73,0,0,1,1,.58l.07-.24A.52.52,0,0,0,129.05,221Z" style="opacity:0.2"></path><path d="M127.3,205.93h0s0,.16.08.38l.77-.15c0-.22-.08-.38-.08-.38h0Z" style="opacity:0.2"></path><path d="M128.12,205.08h0a.3.3,0,0,0-.16,0l-.78.15a.29.29,0,0,0-.14.08h0c0,.07.26.07.56,0S128.13,205.15,128.12,205.08Z" style="opacity:0.2"></path><path d="M128.43,211l.55-.11a.35.35,0,0,0,.27-.44c-.22-.79-.73-2.62-.89-3.34l0-.13c.2,1,.86,3.24.48,3.63a.51.51,0,0,1-.83-.09l0,.17A.36.36,0,0,0,128.43,211Z" style="opacity:0.2"></path><path d="M132,225.94h0l-.07-.38-.77.15.07.38h0Z" style="opacity:0.2"></path><path d="M131.22,226.78h0a.3.3,0,0,0,.16,0l.77-.15a.36.36,0,0,0,.15-.08h0c0-.06-.27-.06-.56,0S131.21,226.72,131.22,226.78Z" style="opacity:0.2"></path><path d="M130.91,220.86l-.55.1a.36.36,0,0,0-.28.45c.23.79.73,2.61.9,3.34a1.3,1.3,0,0,1,0,.13c-.2-1-.86-3.24-.49-3.63a.51.51,0,0,1,.83.09v-.17A.36.36,0,0,0,130.91,220.86Z" style="opacity:0.2"></path><path d="M139.82,217.58v0l-.38-.08-.16.76.39.09v0Z" style="opacity:0.2"></path><path d="M140.29,218.65h0a.22.22,0,0,0,.08-.14l.15-.77a.22.22,0,0,0,0-.16h0c-.06,0-.16.22-.22.51S140.22,218.64,140.29,218.65Z" style="opacity:0.2"></path><path d="M134.69,216.67l-.11.55a.37.37,0,0,0,.31.43c.81.09,2.69.32,3.42.44l.13,0c-1-.21-3.32-.45-3.54-.94a.53.53,0,0,1,.41-.74l-.17,0A.35.35,0,0,0,134.69,216.67Z" style="opacity:0.2"></path><path d="M116.77,214.3a0,0,0,0,1,0,0l.58.12.23-1.16-.58-.13a0,0,0,0,0,0,0Z" style="opacity:0.2"></path><path d="M116.06,212.67h0a.45.45,0,0,0-.12.21l-.24,1.17a.52.52,0,0,0,0,.25h0c.09,0,.24-.33.33-.78S116.15,212.69,116.06,212.67Z" style="opacity:0.2"></path><path d="M124.55,215.68l.17-.83a.55.55,0,0,0-.47-.65c-1.24-.15-4.09-.5-5.2-.68l-.2,0c1.59.32,5.05.68,5.38,1.43.15.35.13.89-.62,1.11l.25.07A.55.55,0,0,0,124.55,215.68Z" style="opacity:0.2"></path><path d="M135.68,224.27h0l-.22-.32-.65.43.21.33h0Z" style="opacity:0.2"></path><path d="M135.25,225.36h0a.3.3,0,0,0,.15-.05l.66-.43a.32.32,0,0,0,.1-.13h0s-.27,0-.52.21S135.22,225.31,135.25,225.36Z" style="opacity:0.2"></path><path d="M132.7,220l-.47.31a.36.36,0,0,0-.08.52c.51.64,1.67,2.13,2.1,2.73a1,1,0,0,1,.08.11c-.59-.89-2-2.66-1.84-3.17a.52.52,0,0,1,.8-.23l-.08-.15A.35.35,0,0,0,132.7,220Z" style="opacity:0.2"></path><path d="M122.21,206.16h0l.3.45.9-.6-.29-.45,0,0Z" style="opacity:0.2"></path><path d="M122.8,204.65h0a.43.43,0,0,0-.22.06l-.9.6a.35.35,0,0,0-.15.17h0c0,.07.37-.06.72-.29S122.85,204.72,122.8,204.65Z" style="opacity:0.2"></path><path d="M126.33,212.06l.65-.43a.49.49,0,0,0,.12-.71c-.7-.9-2.32-3-2.92-3.79l-.1-.15c.81,1.23,2.82,3.68,2.54,4.38a.71.71,0,0,1-1.11.32l.12.21A.49.49,0,0,0,126.33,212.06Z" style="opacity:0.2"></path><path d="M140,222.53s0,0,0,0l-.45-.3-.6.89.44.31a0,0,0,0,1,0,0Z" style="opacity:0.2"></path><path d="M140,224.15h0a.4.4,0,0,0,.18-.14l.6-.9a.33.33,0,0,0,.07-.21h0c-.07,0-.32.19-.55.54S140,224.1,140,224.15Z" style="opacity:0.2"></path><path d="M134,218.66l-.44.64a.5.5,0,0,0,.17.71c1,.55,3.26,1.84,4.14,2.38l.15.1c-1.22-.82-4-2.32-4-3.07,0-.34.2-.8.9-.72l-.19-.15A.49.49,0,0,0,134,218.66Z" style="opacity:0.2"></path><path d="M120.92,210.53h0l.33.21.43-.64-.32-.23h0Z" style="opacity:0.2"></path><path d="M120.9,209.36h0a.26.26,0,0,0-.13.1l-.44.65a.3.3,0,0,0,0,.15h0s.23-.14.4-.39S121,209.39,120.9,209.36Z" style="opacity:0.2"></path><path d="M125.31,213.33l.31-.46a.37.37,0,0,0-.12-.52c-.71-.4-2.36-1.33-3-1.72l-.11-.07c.88.59,2.9,1.68,2.91,2.22,0,.25-.15.58-.66.52l.14.11A.35.35,0,0,0,125.31,213.33Z" style="opacity:0.2"></path><path d="M120.28,223s0,0,0,0l.41-.28-.55-.83-.41.27,0,0Z" style="opacity:0.2"></path><path d="M118.89,222.45h0a.36.36,0,0,0,.06.2l.55.84a.4.4,0,0,0,.16.13h0c.07,0,0-.35-.26-.67S119,222.41,118.89,222.45Z" style="opacity:0.2"></path><path d="M125.74,219.19l-.39-.6a.47.47,0,0,0-.67-.11c-.82.65-2.73,2.14-3.5,2.7l-.14.09c1.13-.75,3.41-2.6,4-2.35a.66.66,0,0,1,.3,1l.19-.11A.45.45,0,0,0,125.74,219.19Z" style="opacity:0.2"></path><path d="M140.1,208.28l0,0-.49.33.65,1,.49-.32,0,0Z" style="opacity:0.2"></path><path d="M141.75,208.93h0a.39.39,0,0,0-.07-.23l-.66-1a.38.38,0,0,0-.18-.15h0c-.08,0,.06.4.31.78S141.67,209,141.75,208.93Z" style="opacity:0.2"></path><path d="M133.66,212.78l.47.71a.54.54,0,0,0,.78.13c1-.77,3.23-2.53,4.14-3.18l.16-.12c-1.34.89-4,3.08-4.78,2.78a.78.78,0,0,1-.35-1.21l-.23.12A.55.55,0,0,0,133.66,212.78Z" style="opacity:0.2"></path><path d="M119.66,218.3v0l.38-.08-.14-.76-.39.07v0Z" style="opacity:0.2"></path><path d="M118.82,217.48h0a.29.29,0,0,0,0,.16l.15.77a.37.37,0,0,0,.07.14h0c.06,0,.06-.26,0-.56S118.88,217.47,118.82,217.48Z" style="opacity:0.2"></path><path d="M124.75,217.18l-.11-.55a.36.36,0,0,0-.45-.28c-.79.22-2.61.73-3.34.9l-.12,0c1-.21,3.24-.87,3.63-.49a.52.52,0,0,1-.1.83l.17,0A.36.36,0,0,0,124.75,217.18Z" style="opacity:0.2"></path><path d="M139.67,213.57v0l-.39.08.15.76.39-.07v0Z" style="opacity:0.2"></path><path d="M140.52,214.38h0a.29.29,0,0,0,0-.16l-.15-.77a.22.22,0,0,0-.08-.14h0c-.06,0-.07.26,0,.56S140.46,214.4,140.52,214.38Z" style="opacity:0.2"></path><path d="M134.59,214.69l.11.55a.36.36,0,0,0,.45.28c.79-.22,2.61-.73,3.33-.9l.13,0c-1.05.21-3.24.87-3.63.49a.52.52,0,0,1,.09-.83l-.17,0A.36.36,0,0,0,134.59,214.69Z" style="opacity:0.2"></path><path d="M124.27,224.68h0l.22-.33-.65-.43-.22.32h0Z" style="opacity:0.2"></path><path d="M123.09,224.7h0a.29.29,0,0,0,.1.12l.65.44a.33.33,0,0,0,.16,0h0c0-.06-.14-.24-.39-.41S123.13,224.65,123.09,224.7Z" style="opacity:0.2"></path><path d="M127.07,220.29l-.47-.31a.35.35,0,0,0-.51.12c-.4.72-1.33,2.36-1.72,3l-.08.12c.6-.89,1.68-2.91,2.23-2.91.24,0,.57.14.52.65l.11-.14A.36.36,0,0,0,127.07,220.29Z" style="opacity:0.2"></path><path d="M135.07,207.19h0l-.22.32.65.44.22-.32h0Z" style="opacity:0.2"></path><path d="M136.24,207.17h0a.25.25,0,0,0-.11-.12l-.65-.44a.21.21,0,0,0-.15,0h0c0,.06.14.24.4.4S136.21,207.22,136.24,207.17Z" style="opacity:0.2"></path><path d="M132.27,211.57l.47.32a.35.35,0,0,0,.51-.12c.4-.72,1.33-2.37,1.72-3l.07-.11c-.59.89-1.68,2.9-2.22,2.91-.25,0-.58-.14-.52-.65l-.11.13A.36.36,0,0,0,132.27,211.57Z" style="opacity:0.2"></path></g><g id="freepik--Syringe--inject-2"><polygon points="280.43 196.04 265.45 189.99 266.2 188.12 282.51 194.71 280.43 196.04" style="fill:#263238"></polygon><polygon points="280.43 196.04 265.45 189.99 266.2 188.12 282.51 194.71 280.43 196.04" style="fill:#fff;opacity:0.6000000000000001"></polygon><rect x="230.63" y="175.72" width="7.18" height="1.13" transform="translate(83.09 -74.9) rotate(22)" style="fill:#263238"></rect><rect x="235.69" y="178.94" width="29.9" height="7.95" transform="translate(86.77 -80.57) rotate(22)" style="fill:#03A84E"></rect><path d="M263,192.21h0l3-7.38h0a4.77,4.77,0,0,1,.42,4.37l-.07.15A4.77,4.77,0,0,1,263,192.21Z" style="fill:#263238"></path><path d="M239,178.84h0a.53.53,0,0,1-.29-.69l.72-1.79a.53.53,0,0,1,.69-.3h0a.53.53,0,0,1,.3.7l-.72,1.79A.54.54,0,0,1,239,178.84Z" style="fill:#fff"></path><path d="M242.37,178.65h0a.53.53,0,0,1-.3-.7l.19-.46a.53.53,0,0,1,.7-.3h0a.54.54,0,0,1,.29.7l-.19.46A.53.53,0,0,1,242.37,178.65Z" style="fill:#fff"></path><path d="M245.16,179.78h0a.55.55,0,0,1-.3-.7l.19-.47a.54.54,0,0,1,.7-.29h0a.53.53,0,0,1,.29.69l-.19.47A.53.53,0,0,1,245.16,179.78Z" style="fill:#fff"></path><path d="M247.42,182.22h0a.53.53,0,0,1-.3-.69l.72-1.79a.55.55,0,0,1,.7-.29h0a.53.53,0,0,1,.3.69l-.73,1.79A.53.53,0,0,1,247.42,182.22Z" style="fill:#fff"></path><path d="M250.74,182h0a.53.53,0,0,1-.29-.69l.19-.47a.53.53,0,0,1,.69-.3h0a.54.54,0,0,1,.3.7l-.19.47A.54.54,0,0,1,250.74,182Z" style="fill:#fff"></path><path d="M253.53,183.16h0a.54.54,0,0,1-.29-.7l.19-.46a.53.53,0,0,1,.69-.3h0a.53.53,0,0,1,.3.7l-.19.46A.53.53,0,0,1,253.53,183.16Z" style="fill:#fff"></path><path d="M255.79,185.61h0a.54.54,0,0,1-.29-.7l.72-1.78a.53.53,0,0,1,.7-.3h0a.54.54,0,0,1,.29.7l-.72,1.78A.53.53,0,0,1,255.79,185.61Z" style="fill:#fff"></path><path d="M259.12,185.42h0a.55.55,0,0,1-.3-.7l.19-.47a.54.54,0,0,1,.7-.29h0a.53.53,0,0,1,.29.69l-.19.47A.53.53,0,0,1,259.12,185.42Z" style="fill:#fff"></path><path d="M261.91,186.54h0a.53.53,0,0,1-.29-.69l.18-.47a.54.54,0,0,1,.7-.29h0a.52.52,0,0,1,.29.69l-.18.47A.54.54,0,0,1,261.91,186.54Z" style="fill:#fff"></path><path d="M231.84,171.17h.82a0,0,0,0,1,0,0v8a0,0,0,0,1,0,0h-.82a1.68,1.68,0,0,1-1.68-1.68v-4.6A1.68,1.68,0,0,1,231.84,171.17Z" transform="translate(82.47 -73.94) rotate(22)" style="fill:#263238"></path><path d="M231.84,171.17h.82a0,0,0,0,1,0,0v8a0,0,0,0,1,0,0h-.82a1.68,1.68,0,0,1-1.68-1.68v-4.6A1.68,1.68,0,0,1,231.84,171.17Z" transform="translate(82.47 -73.94) rotate(22)" style="fill:#fff;opacity:0.6000000000000001"></path></g><g id="freepik--Clouds--inject-2"><path d="M309.16,125.87c.16,3.23-25.23,1.25-54.13,2.68s-23.2-17.47-18.39-20.6c5.11-3.33,12.11-.6,12.11-.6S245.88,96.69,255,94.12c7.56-2.12,12.19,7.47,12.19,7.47s3.58-6.77,10.63-4.83c7.33,2,5.35,10.6,8.36,13s15.94,1.1,16,3.12c.14,2.76-10.75,2.68-10.66,4.43.16,3.35,27.36-1.36,27.56,2.55.16,3.34-24.61,1.07-24.49,3.48C294.74,125.12,309.06,123.74,309.16,125.87Z" style="fill:#03A84E"></path><path d="M309.16,125.87c.16,3.23-25.23,1.25-54.13,2.68s-23.2-17.47-18.39-20.6c5.11-3.33,12.11-.6,12.11-.6S245.88,96.69,255,94.12c7.56-2.12,12.19,7.47,12.19,7.47s3.58-6.77,10.63-4.83c7.33,2,5.35,10.6,8.36,13s15.94,1.1,16,3.12c.14,2.76-10.75,2.68-10.66,4.43.16,3.35,27.36-1.36,27.56,2.55.16,3.34-24.61,1.07-24.49,3.48C294.74,125.12,309.06,123.74,309.16,125.87Z" style="fill:#fff;opacity:0.7000000000000001"></path><path d="M245.61,111.63c1.29-3.29,4-6.58,9.73-3,0,0,4.31-6.57,9.8-3.39a.73.73,0,0,1-.52,1.35c-2.68-.58-6.15,0-8.18,5.3,0,0-5.2-4.4-9.59.49A.73.73,0,0,1,245.61,111.63Z" style="opacity:0.1"></path><path d="M248,121.9c2.54-3,7.69-6.92,15.25-1.66a10.42,10.42,0,0,1,8.94-2.6.66.66,0,0,0,.49-1.2c-3.12-1.9-7.23-3.16-9.83.86,0,0-12.48-7.28-16,4A.66.66,0,0,0,248,121.9Z" style="opacity:0.1"></path><path d="M238.41,115.74a5.14,5.14,0,0,1,4.39,1.05.62.62,0,0,0,.94-.76c-1-2.06-2.87-4-5.85-1.37A.62.62,0,0,0,238.41,115.74Z" style="opacity:0.1"></path><path d="M276.77,117c1.75-2.35,4.82-4.47,9.75-1.92a1,1,0,0,1-.46,1.8,15.57,15.57,0,0,0-8.07,1.54A1,1,0,0,1,276.77,117Z" style="opacity:0.1"></path></g><g id="freepik--Skulls--inject-2"><path d="M344.19,283.75a13.74,13.74,0,0,0-10.82-16.14l-6.51-1.29a13.72,13.72,0,0,0-16.18,10.76,13.54,13.54,0,0,0,6.89,14.38l-1.05,3.92,0,.18a.84.84,0,0,0,1.66.24l.21-1.05a.66.66,0,0,1,.78-.52h0a.66.66,0,0,1,.52.79l-.39,2a.84.84,0,0,0,.66,1l.59.12a.84.84,0,0,0,1-.66l.39-2a.68.68,0,0,1,.79-.52h0a.67.67,0,0,1,.53.78l-.4,2a.85.85,0,0,0,.67,1l.58.11a.84.84,0,0,0,1-.66l.4-2a.67.67,0,0,1,.78-.53h0a.68.68,0,0,1,.52.79l-.39,2a.84.84,0,0,0,.66,1l.59.12a.84.84,0,0,0,1-.66l.39-2a.66.66,0,0,1,.78-.52h0a.67.67,0,0,1,.52.79l-.21,1a.84.84,0,0,0,1.63.42,1.16,1.16,0,0,0,0-.18l.54-4A13.52,13.52,0,0,0,344.19,283.75Z" style="fill:#03A84E"></path><path d="M344.19,283.75a13.74,13.74,0,0,0-10.82-16.14l-6.51-1.29a13.72,13.72,0,0,0-16.18,10.76,13.54,13.54,0,0,0,6.89,14.38l-1.05,3.92,0,.18a.84.84,0,0,0,1.66.24l.21-1.05a.66.66,0,0,1,.78-.52h0a.66.66,0,0,1,.52.79l-.39,2a.84.84,0,0,0,.66,1l.59.12a.84.84,0,0,0,1-.66l.39-2a.68.68,0,0,1,.79-.52h0a.67.67,0,0,1,.53.78l-.4,2a.85.85,0,0,0,.67,1l.58.11a.84.84,0,0,0,1-.66l.4-2a.67.67,0,0,1,.78-.53h0a.68.68,0,0,1,.52.79l-.39,2a.84.84,0,0,0,.66,1l.59.12a.84.84,0,0,0,1-.66l.39-2a.66.66,0,0,1,.78-.52h0a.67.67,0,0,1,.52.79l-.21,1a.84.84,0,0,0,1.63.42,1.16,1.16,0,0,0,0-.18l.54-4A13.52,13.52,0,0,0,344.19,283.75Z" style="fill:#fff;opacity:0.7000000000000001"></path><g style="opacity:0.2"><path d="M332.33,294.39h.09a13.2,13.2,0,0,1-4.1-.18l-4.13-.82a13.57,13.57,0,0,0,4.61,1.85l3.29.65Z"></path></g><path d="M338.1,282.8c.66,2.72-.54,5.35-2.7,5.87s-4.44-1.24-5.1-4,.54-5.34,2.7-5.87S337.44,280.09,338.1,282.8Z" style="opacity:0.6000000000000001"></path><path d="M332.72,280.25c2.15-.53,4.44,1.24,5.1,4a6.23,6.23,0,0,1,.17,1.9,6,6,0,0,0,.11-3.31c-.66-2.71-3-4.49-5.1-4a4.15,4.15,0,0,0-2.87,4A3.78,3.78,0,0,1,332.72,280.25Z" style="fill:#263238"></path><path d="M316.67,278.54c-1.65,2.25-1.54,5.15.24,6.46s4.58.54,6.24-1.71,1.54-5.14-.25-6.46S318.32,276.29,316.67,278.54Z" style="opacity:0.6000000000000001"></path><path d="M316.39,280c1.65-2.26,4.44-3,6.23-1.71A3.76,3.76,0,0,1,324,281.6a4.16,4.16,0,0,0-1.13-4.77c-1.79-1.31-4.58-.54-6.23,1.71a5.82,5.82,0,0,0-1.16,3.1A5.82,5.82,0,0,1,316.39,280Z" style="fill:#263238"></path><path d="M327.81,289l-1.61-2.41-2.41,1.61a1,1,0,0,0-.26,1.34h0a1,1,0,0,0,1.34.26h0a1,1,0,0,1,1.33.27h0a1,1,0,0,0,1.34.27h0A1,1,0,0,0,327.81,289Z" style="opacity:0.6000000000000001"></path><path d="M168.18,244.93a10,10,0,0,0-13.9-2.74l-4,2.7a10,10,0,0,0-2.79,13.89,9.85,9.85,0,0,0,11,3.86l1.48,2.56a1,1,0,0,0,.08.11.61.61,0,0,0,1-.73l-.43-.64a.49.49,0,0,1,.13-.68h0a.48.48,0,0,1,.67.13l.82,1.22a.6.6,0,0,0,.85.17l.36-.24a.61.61,0,0,0,.17-.85l-.82-1.22a.5.5,0,0,1,.14-.68h0a.49.49,0,0,1,.68.13l.81,1.23a.62.62,0,0,0,.85.17l.37-.25a.61.61,0,0,0,.17-.85l-.82-1.22a.49.49,0,0,1,.14-.68h0a.48.48,0,0,1,.67.14l.82,1.22a.61.61,0,0,0,.85.17l.37-.25a.61.61,0,0,0,.16-.85l-.81-1.22a.48.48,0,0,1,.13-.67h0a.49.49,0,0,1,.67.14l.43.64a.61.61,0,0,0,1.06-.62,1,1,0,0,0-.08-.11l-1.79-2.35A9.89,9.89,0,0,0,168.18,244.93Z" style="fill:#03A84E"></path><path d="M168.18,244.93a10,10,0,0,0-13.9-2.74l-4,2.7a10,10,0,0,0-2.79,13.89,9.85,9.85,0,0,0,11,3.86l1.48,2.56a1,1,0,0,0,.08.11.61.61,0,0,0,1-.73l-.43-.64a.49.49,0,0,1,.13-.68h0a.48.48,0,0,1,.67.13l.82,1.22a.6.6,0,0,0,.85.17l.36-.24a.61.61,0,0,0,.17-.85l-.82-1.22a.5.5,0,0,1,.14-.68h0a.49.49,0,0,1,.68.13l.81,1.23a.62.62,0,0,0,.85.17l.37-.25a.61.61,0,0,0,.17-.85l-.82-1.22a.49.49,0,0,1,.14-.68h0a.48.48,0,0,1,.67.14l.82,1.22a.61.61,0,0,0,.85.17l.37-.25a.61.61,0,0,0,.16-.85l-.81-1.22a.48.48,0,0,1,.13-.67h0a.49.49,0,0,1,.67.14l.43.64a.61.61,0,0,0,1.06-.62,1,1,0,0,0-.08-.11l-1.79-2.35A9.89,9.89,0,0,0,168.18,244.93Z" style="fill:#fff;opacity:0.7000000000000001"></path><g style="opacity:0.2"><path d="M167.56,256.55l0-.06a9.71,9.71,0,0,1-2.21,2l-2.55,1.71a10,10,0,0,0,3.33-1.43l2-1.36Z"></path></g><path d="M164.56,247.59c1.74,1.06,2.47,3,1.63,4.42s-2.93,1.65-4.67.59-2.48-3-1.64-4.42S162.81,246.53,164.56,247.59Z" style="opacity:0.6000000000000001"></path><path d="M160.46,249.05c.84-1.39,2.93-1.65,4.68-.59a4.64,4.64,0,0,1,1.06.89,4.36,4.36,0,0,0-1.64-1.76c-1.75-1.06-3.84-.79-4.68.59a3,3,0,0,0,.57,3.52A2.71,2.71,0,0,1,160.46,249.05Z" style="fill:#263238"></path><path d="M151.3,256.44c.31,2,1.86,3.45,3.46,3.21s2.64-2.08,2.33-4.1-1.85-3.45-3.45-3.2S151,254.43,151.3,256.44Z" style="opacity:0.6000000000000001"></path><path d="M151.88,257.31c-.31-2,.74-3.84,2.34-4.09a2.71,2.71,0,0,1,2.45,1,3,3,0,0,0-3-1.88c-1.6.25-2.65,2.08-2.34,4.09a4.31,4.31,0,0,0,1,2.2A4.6,4.6,0,0,1,151.88,257.31Z" style="fill:#263238"></path><path d="M162.46,256.11l-2.07-.41-.41,2.07a.69.69,0,0,0,.55.82h0a.7.7,0,0,0,.83-.55h0a.69.69,0,0,1,.82-.55h0a.71.71,0,0,0,.83-.55h0A.69.69,0,0,0,162.46,256.11Z" style="opacity:0.6000000000000001"></path></g><g id="freepik--Bats--inject-2"><path d="M295.83,145.94s2.3,1.16,2.63,2.08a1.77,1.77,0,1,1-3.32,1.2C294.81,148.31,295.83,145.94,295.83,145.94Z" style="fill:#263238"></path><path d="M302.17,146.66a1.76,1.76,0,1,1-3.31,1.21c-.34-.91.68-3.28.68-3.28S301.84,145.75,302.17,146.66Z" style="fill:#263238"></path><path d="M301.65,147.21c.21.57-.27.68-.83.89s-1,.42-1.21-.14.42-2,.42-2S301.45,146.65,301.65,147.21Z" style="fill:#fff;opacity:0.2"></path><path d="M297.94,148.56c.21.57-.27.68-.84.89s-1,.42-1.21-.14.43-2,.43-2S297.73,148,297.94,148.56Z" style="fill:#fff;opacity:0.2"></path><path d="M270.67,160.33c-1.16-5.73.94-10.83,5.05-13.76,2.3,4.23,8.31,7.26,14.71,7.1a17.29,17.29,0,0,0,4.59-.74,5.81,5.81,0,0,1,9.63-3.5,17.43,17.43,0,0,0,4-2.39c5-4,7.66-10.17,6.71-14.89,5-.4,9.92,2.15,12.71,7.29a17.23,17.23,0,0,1,.94,2.05,1.57,1.57,0,0,1-1.27,2.13,4.13,4.13,0,0,0-2.27.91c-1.15.91-1.5,3.26-1.54,5.56a2.3,2.3,0,0,1-3.35,2,4.56,4.56,0,0,0-5,.33c-1.57,1.25-2.33,3.53-2.24,6.08a2.27,2.27,0,0,1-3.22,2.12c-1.64-.75-3.38-1.16-4.45-.31a3.81,3.81,0,0,0-.6,1.87,1.29,1.29,0,0,1-2.13.77,3.49,3.49,0,0,0-1.68-1c-1.36,0-2.43,1.45-3.2,3.09a2.27,2.27,0,0,1-3.81.48c-1.58-2-3.63-3.3-5.64-3.25-1.37,0-2.43,1.46-3.21,3.09a2.27,2.27,0,0,1-3.81.48c-1.57-2-3.63-3.3-5.64-3.25a4.23,4.23,0,0,0-2.32.77,1.56,1.56,0,0,1-2.34-.81A16.35,16.35,0,0,1,270.67,160.33Z" style="fill:#263238"></path><path d="M298.35,152.12l-.51.06a2,2,0,0,0,.15.72c.28.69.85,1.11,1.27.94s.52-.87.24-1.56a3,3,0,0,0-.23-.4A4.57,4.57,0,0,1,298.35,152.12Z" style="fill:#03A84E"></path><path d="M301.62,150.77a4.16,4.16,0,0,0,.39-.32,1.82,1.82,0,0,1,.41.61c.29.69.18,1.39-.23,1.57s-1-.25-1.28-.94a2.64,2.64,0,0,1-.12-.44A4.77,4.77,0,0,0,301.62,150.77Z" style="fill:#03A84E"></path><path d="M312.26,178.59s1.16,1,1.22,1.63a1.07,1.07,0,1,1-2.13.19C311.29,179.82,312.26,178.59,312.26,178.59Z" style="fill:#263238"></path><path d="M315.86,180a1.07,1.07,0,1,1-2.13.19c-.05-.59.91-1.81.91-1.81S315.81,179.41,315.86,180Z" style="fill:#263238"></path><path d="M315.47,180.24c0,.36-.26.36-.63.39s-.65.09-.68-.27.56-1.12.56-1.12S315.44,179.88,315.47,180.24Z" style="fill:#fff;opacity:0.2"></path><path d="M313.09,180.45c0,.37-.27.36-.63.39s-.66.09-.69-.27.56-1.12.56-1.12S313.05,180.09,313.09,180.45Z" style="fill:#fff;opacity:0.2"></path><path d="M295.28,183.1a8,8,0,0,1,5.1-7.27c.69,2.83,3.74,5.54,7.51,6.44a9.89,9.89,0,0,0,2.8.29,3.53,3.53,0,0,1,6.2-.55,10.76,10.76,0,0,0,2.7-.78c3.56-1.56,6.08-4.77,6.25-7.68a8,8,0,0,1,6.31,6.25,10.62,10.62,0,0,1,.24,1.35,1,1,0,0,1-1.08,1,2.42,2.42,0,0,0-1.47.18c-.82.36-1.39,1.68-1.77,3a1.39,1.39,0,0,1-2.27.65,2.76,2.76,0,0,0-3-.58,4.44,4.44,0,0,0-2.26,3.21,1.37,1.37,0,0,1-2.21.74c-.85-.7-1.8-1.21-2.56-.88-.21.09-.44.53-.65,1a.78.78,0,0,1-1.36.13c-.29-.43-.59-.81-.83-.87-.8-.19-1.65.47-2.36,1.31a1.37,1.37,0,0,1-2.3-.31,4.44,4.44,0,0,0-2.8-2.78c-.81-.2-1.65.47-2.36,1.31a1.38,1.38,0,0,1-2.31-.32,4.45,4.45,0,0,0-2.8-2.78,2.57,2.57,0,0,0-1.48.09,1,1,0,0,1-1.24-.84A9,9,0,0,1,295.28,183.1Z" style="fill:#263238"></path><path d="M312.77,182.6l-.3,0a1.06,1.06,0,0,0,0,.44c.06.45.33.79.6.75s.44-.43.38-.88a1.34,1.34,0,0,0-.07-.27A2.81,2.81,0,0,1,312.77,182.6Z" style="fill:#03A84E"></path><path d="M314.9,182.32l.28-.13a1.15,1.15,0,0,1,.14.43c.06.45-.11.84-.38.88s-.54-.3-.6-.75a1.31,1.31,0,0,1,0-.28A3.62,3.62,0,0,0,314.9,182.32Z" style="fill:#03A84E"></path></g><g id="freepik--Lightning--inject-2"><polygon points="229.53 132.5 223.71 142.3 203.38 116 198.87 128 181.96 98 182.91 111 178.36 111.5 193.02 133.12 185 134.33 189.72 145.67 182.91 145.67 190.47 163.07 188.67 151 197.2 151.33 192.32 139.33 197.23 139.33 202.09 146.5 208.22 134.5 226.68 156.12 233.28 146.5 255.89 167.8 229.53 132.5" style="fill:#03A84E"></polygon><polygon points="229.53 132.5 223.71 142.3 203.38 116 198.87 128 181.96 98 182.91 111 178.36 111.5 193.02 133.12 185 134.33 189.72 145.67 182.91 145.67 190.47 163.07 188.67 151 197.2 151.33 192.32 139.33 197.23 139.33 202.09 146.5 208.22 134.5 226.68 156.12 233.28 146.5 255.89 167.8 229.53 132.5" style="fill:#fff;opacity:0.7000000000000001"></polygon></g><g id="freepik--Character--inject-2"><path d="M249.25,249.17a703.56,703.56,0,0,0-8.7,77.54l-4.09-.34a705.27,705.27,0,0,1,8.88-78.05c2.45-16.67,19.14-29.69,35.08-28.61a24.81,24.81,0,0,1,18.36,10.35,26.73,26.73,0,0,1,4.05,21.13,641,641,0,0,0-9,70.41l-4.07-.26a643.54,643.54,0,0,1,9.05-70.95,22.6,22.6,0,0,0-3.48-17.92,18.52,18.52,0,0,0-1.6-1.94,630.61,630.61,0,0,0-13.24,92.34l-4.09-.3a623,623,0,0,1,13.92-95,21.55,21.55,0,0,0-8.7-3.36,634.16,634.16,0,0,0-14.46,100.1l-4.09-.31a639.41,639.41,0,0,1,14.44-100,26,26,0,0,0-9.94,2.14,650.08,650.08,0,0,0-13.76,99.38l-4.09-.33a651.72,651.72,0,0,1,13.09-96.55A32,32,0,0,0,249.25,249.17Z" style="fill:#03A84E"></path><path d="M249.25,249.17a703.56,703.56,0,0,0-8.7,77.54l-4.09-.34a705.27,705.27,0,0,1,8.88-78.05c2.45-16.67,19.14-29.69,35.08-28.61a24.81,24.81,0,0,1,18.36,10.35,26.73,26.73,0,0,1,4.05,21.13,641,641,0,0,0-9,70.41l-4.07-.26a643.54,643.54,0,0,1,9.05-70.95,22.6,22.6,0,0,0-3.48-17.92,18.52,18.52,0,0,0-1.6-1.94,630.61,630.61,0,0,0-13.24,92.34l-4.09-.3a623,623,0,0,1,13.92-95,21.55,21.55,0,0,0-8.7-3.36,634.16,634.16,0,0,0-14.46,100.1l-4.09-.31a639.41,639.41,0,0,1,14.44-100,26,26,0,0,0-9.94,2.14,650.08,650.08,0,0,0-13.76,99.38l-4.09-.33a651.72,651.72,0,0,1,13.09-96.55A32,32,0,0,0,249.25,249.17Z" style="fill:#fff;opacity:0.6000000000000001"></path><polygon points="290.79 419.28 295.78 419.28 291.69 323.76 285.32 323.76 290.79 419.28" style="fill:#03A84E"></polygon><polygon points="257.36 419.28 262.35 419.28 259.64 323.76 253.27 323.76 257.36 419.28" style="fill:#03A84E"></polygon><polygon points="231.43 419.28 236.44 419.28 240.53 323.76 234.16 323.76 231.43 419.28" style="fill:#03A84E"></polygon><polygon points="198 419.28 203.01 419.28 208.46 323.76 202.09 323.76 198 419.28" style="fill:#03A84E"></polygon><g style="opacity:0.6000000000000001"><polygon points="290.79 419.28 295.78 419.28 291.69 323.76 285.32 323.76 290.79 419.28" style="fill:#fff"></polygon><polygon points="257.36 419.28 262.35 419.28 259.64 323.76 253.27 323.76 257.36 419.28" style="fill:#fff"></polygon><polygon points="231.43 419.28 236.44 419.28 240.53 323.76 234.16 323.76 231.43 419.28" style="fill:#fff"></polygon><polygon points="198 419.28 203.01 419.28 208.46 323.76 202.09 323.76 198 419.28" style="fill:#fff"></polygon></g><path d="M199.83,323.76H294a10,10,0,0,0-10-10H209.83a10,10,0,0,0-10,10Z" style="fill:#263238"></path><rect x="195.72" y="320.12" width="55.95" height="7.27" style="fill:#03A84E"></rect><rect x="195.72" y="320.12" width="55.95" height="7.27" style="fill:#fff;opacity:0.6000000000000001"></rect><rect x="251.67" y="320.12" width="46.41" height="7.27" style="fill:#03A84E"></rect><rect x="251.67" y="320.12" width="46.41" height="7.27" style="fill:#fff;opacity:0.30000000000000004"></rect><path d="M177.68,200.75a1.88,1.88,0,0,0,1.2.54l3.93.33a2,2,0,0,0,1.88-1l1.67-2.88a22.41,22.41,0,0,0,2.95-9.14l.1-1.09a3.27,3.27,0,0,0-2.92-3.58h-.11l-4-.31a3.28,3.28,0,0,0-3.4,2.53l-1.13,4.61S174.71,197.83,177.68,200.75Z" style="fill:#ebb376"></path><path d="M216.59,193s3.38,7.13,12.93,6.36l-15.78,9.35-4.46-3.4Z" style="fill:#ebb376"></path><path d="M216.59,193s3.38,7.13,12.93,6.36l-15.78,9.35-4.46-3.4Z" style="opacity:0.2"></path><polygon points="217.46 211.5 209.28 208.18 226.81 193.88 238.13 198.62 217.46 211.5" style="fill:#263238"></polygon><path d="M216.05,210.93l1.41.57,20.67-12.88-6.81-2.86C221.5,201.9,217.59,207.36,216.05,210.93Z" style="opacity:0.6000000000000001"></path><path d="M187.54,185.09s-6.24,4.29-5.52,7.48,6.65-.15,6.65-.15-5,4.87-3.32,7.94,9.08-6,9.08-6Z" style="fill:#263238"></path><path d="M210.16,192.47l-4.95,8.46a14,14,0,0,1,2.58,3.65c2.56-2,4.48-3.66,4.48-7.89A5.33,5.33,0,0,0,210.16,192.47Z" style="isolation:isolate;opacity:0.2"></path><path d="M210.71,185.49c3.09,8.46,5.32,13.27,3,19.28-3.53,9-15.41,9.6-21,2.18-5-6.66-9.2-19.39-2.51-26.17a12.4,12.4,0,0,1,20.51,4.71Z" style="fill:#ebb376"></path><path d="M201.12,192.28c.29.68.17,1.38-.27,1.56s-1.09-.2-1.32-.88-.18-1.36.26-1.55S200.82,191.62,201.12,192.28Z" style="fill:#2e353a"></path><path d="M193.13,195.26c.28.68.16,1.36-.28,1.56s-1-.21-1.33-.88-.17-1.37.28-1.56S192.81,194.58,193.13,195.26Z" style="fill:#2e353a"></path><path d="M194.45,195.6a26.69,26.69,0,0,1-.73,7.12,4.25,4.25,0,0,0,3.48-.78Z" style="fill:#d58745"></path><path d="M198.58,187.29a.44.44,0,0,0-.15.12.4.4,0,0,0,0,.56h0a4,4,0,0,0,3.55.81.38.38,0,0,0,.26-.47v0a.41.41,0,0,0-.5-.25h0a3.16,3.16,0,0,1-2.8-.67A.4.4,0,0,0,198.58,187.29Z" style="fill:#2e353a"></path><path d="M189.86,190.58a.45.45,0,0,0-.24.33,3.4,3.4,0,0,1-1.71,2.6.43.43,0,0,0,.37.77h0a4.27,4.27,0,0,0,2.18-3.27.43.43,0,0,0-.37-.48h0A.39.39,0,0,0,189.86,190.58Z" style="fill:#2e353a"></path><path d="M205.82,201.29c-.6,1.09-2.18,2.93-6.28,4a1,1,0,0,1-1.22-.69l0-.09c-.22-1.47.35-3,2.81-4.36a4.17,4.17,0,0,1,4.36-.18A1,1,0,0,1,205.82,201.29Z" style="fill:#2e353a"></path><path d="M200.76,202a5.67,5.67,0,0,0,2.61-2.58,4.56,4.56,0,0,0-2.27.68,5.67,5.67,0,0,0-2.62,2.59A4.71,4.71,0,0,0,200.76,202Z" style="fill:#fff"></path><path d="M207.13,200.17s.9,1.55-.53,1.84C207.07,201.58,207.13,200.17,207.13,200.17Z" style="isolation:isolate;opacity:0.2"></path><path d="M212,193.26s-7.81,1.06-4.6-4.63c0,0-6.19-1-1.48-4.47,0,0-14.17,5.83-9.77-2,0,0-16.25,10.08-17.7,3.33-1.07-5,6.56-4.2,6.56-4.2s-6.56-4.53-4.24-8.57,8.29.17,8.29.17-5.86-9.79,6.14-4.44,17.56,1.47,21.69,7.68,3.1,21.88-3.23,21.59C210.58,197.57,212,193.26,212,193.26Z" style="fill:#263238"></path><path d="M218.26,192a7.74,7.74,0,0,1-1.87,5.66c-1.81,2.06-4.23.8-5-1.67-.67-2.18-.56-6,1.87-7.15a3.53,3.53,0,0,1,5,3.16Z" style="fill:#ebb376"></path><path d="M213.47,205.21a138.32,138.32,0,0,1-1.63-16.66c-.36-1-.74-2-1.13-3.06a12.38,12.38,0,0,0-3-4.73c-1.41-1.4-1.18-3.34-2.95-3.93-.82,2.24-4.46,8.93-1.91,11.84-.81,5.13-2,14.83-.79,23.37A11.31,11.31,0,0,0,213.47,205.21Z" style="opacity:0.2"></path><path d="M208.22,234.36s-22.54,10.83-30.92-1.2.39-33.6.39-33.6l6.84-.54s-.68,25.09,2,26.72c3.32,2,14.23-3.24,14.23-3.24Z" style="fill:#ebb376"></path><path d="M215.67,216.1c-5.74-1-22.65,5.66-22.65,5.66a123.28,123.28,0,0,1,8.28,19.81S240.82,220.62,215.67,216.1Z" style="fill:#263238"></path><path d="M215.67,216.1a14.36,14.36,0,0,0-4.39.17l-1.66,2.66s4.53,8-2.91,19.52C216.57,232.44,234.77,219.53,215.67,216.1Z" style="opacity:0.6000000000000001"></path><polygon points="167.48 366.83 170.01 382.67 178.24 381.34 179.19 363.35 167.48 366.83" style="fill:#ebb376"></polygon><path d="M180,300.62c12.12,6.72,35.8,12.89,51.62,17.93,17.34,5.53,31.58-6.69,31.09-24.92l-.15-5s-93-28.57-106.19-12.11c-9.28,11.55,11.91,98.93,11.91,98.93l10.56-3.79S186.79,308.94,180,300.62Z" style="fill:#03A84E"></path><path d="M233.52,290.53s-25,.82-42.57,2.85c-36.95,4.27-19.62,33.33-10,38.38,2.92,1.48,3.17-26.25-1-31.14a55.71,55.71,0,0,0,5.33,2.62Z" style="opacity:0.2"></path><path d="M169.14,377.7l11.75-2.94a1.1,1.1,0,0,0,.82-1.28l-1.27-7a1.09,1.09,0,0,0-1.27-.89,1.38,1.38,0,0,0-.27.08l-12.85,5.92a1.09,1.09,0,0,0-.54,1.46s0,.07.05.1l2.38,4A1.14,1.14,0,0,0,169.14,377.7Z" style="fill:#03A84E"></path><path d="M169.14,377.7l11.75-2.94a1.1,1.1,0,0,0,.82-1.28l-1.27-7a1.09,1.09,0,0,0-1.27-.89,1.38,1.38,0,0,0-.27.08l-12.85,5.92a1.09,1.09,0,0,0-.54,1.46s0,.07.05.1l2.38,4A1.14,1.14,0,0,0,169.14,377.7Z" style="fill:#fff;isolation:isolate;opacity:0.30000000000000004"></path><polygon points="224.95 387.57 235.24 400.72 242.08 396.28 232.39 378.39 224.95 387.57" style="fill:#ebb376"></polygon><path d="M205.67,323.6c13.86.35,36.69-3.44,53-6.28,17.93-3.12,22.7-20.81,17.07-38.16a28.81,28.81,0,0,1-.52-4.34,323.51,323.51,0,0,0-47.45,13.9c-24.65,9.55-52.12,13.85-54.22,24.46-2.89,14.53,56.3,82.22,56.3,82.22l7.61-8.25S215.56,327.83,205.67,323.6Z" style="fill:#03A84E"></path><path d="M231.69,397l9.06-8a1.09,1.09,0,0,0,.14-1.51l-4.37-5.64a1.09,1.09,0,0,0-1.54-.2,1.19,1.19,0,0,0-.2.19L226.12,393a1.08,1.08,0,0,0,.2,1.54l.09.07,4,2.47A1.13,1.13,0,0,0,231.69,397Z" style="fill:#03A84E"></path><path d="M231.69,397l9.06-8a1.09,1.09,0,0,0,.14-1.51l-4.37-5.64a1.09,1.09,0,0,0-1.54-.2,1.19,1.19,0,0,0-.2.19L226.12,393a1.08,1.08,0,0,0,.2,1.54l.09.07,4,2.47A1.13,1.13,0,0,0,231.69,397Z" style="fill:#fff;isolation:isolate;opacity:0.30000000000000004"></path><path d="M221.32,277.45s18,14.19,54.24-1.88c0,0-1-64.92-20.82-80.23,0,0-34,3.15-47.2,21.76C207.54,217.1,231.61,250.14,221.32,277.45Z" style="fill:#263238"></path><path d="M208.61,220.62s16.37,8.17,36.48-1.69S255.7,197.5,255.7,197.5Z" style="opacity:0.6000000000000001"></path><path d="M204.42,187.2l6.76.43s.54,20.2,3.52,21.45,19.68-7.78,19.68-7.78l10.64,12s-31.69,14.13-38.13,6.19C199.48,210.3,204.42,187.2,204.42,187.2Z" style="fill:#ebb376"></path><path d="M226.67,201.3l15,17.76S265.92,205,256.19,196,226.67,201.3,226.67,201.3Z" style="fill:#263238"></path><path d="M204.05,190.41a1.88,1.88,0,0,0,1.2.54l3.93.33a2,2,0,0,0,1.88-1l1.68-2.88a22.55,22.55,0,0,0,2.94-9.14l.1-1.09a3.28,3.28,0,0,0-2.92-3.59h-.11l-4-.31a3.28,3.28,0,0,0-3.4,2.53l-1.13,4.61S201.08,187.49,204.05,190.41Z" style="fill:#ebb376"></path><path d="M234.31,401.49l7.47-7.19a.71.71,0,0,1,.95-.07l6.38,4.91a1.47,1.47,0,0,1,0,2.18c-2.65,2.46-4.05,3.52-7.33,6.68-2,1.95-4.78,5-7.57,7.68s-5.52.15-4.59-1.21c4.16-6.1,3.54-8.4,3.92-11.52A2.43,2.43,0,0,1,234.31,401.49Z" style="fill:#263238"></path><path d="M231.18,405.65a1.24,1.24,0,0,0,.33,0c1.16,0,2.47-1.77,3.14-2.8a.21.21,0,0,0-.22-.33c-.37.07-3.62.75-4.05,1.84a.73.73,0,0,0,.11.72A1.32,1.32,0,0,0,231.18,405.65ZM234,403.1c-1,1.35-1.86,2.14-2.49,2.16a.79.79,0,0,1-.66-.39.32.32,0,0,1-.06-.31C231,404,232.7,403.41,234,403.1Z" style="fill:#03A84E"></path><path d="M231.66,402.83a6.56,6.56,0,0,0,2.87.15.23.23,0,0,0,.15-.15.22.22,0,0,0-.05-.21c-.08-.08-1.86-1.91-3.18-1.86a1.16,1.16,0,0,0-.88.44.75.75,0,0,0-.11.94A2.1,2.1,0,0,0,231.66,402.83Zm2.36-.2c-1.09.12-2.86-.2-3.2-.72,0-.09-.1-.22.09-.44a.72.72,0,0,1,.56-.28A4.76,4.76,0,0,1,234,402.63Z" style="fill:#03A84E"></path><path d="M169,382l10.17-2a.73.73,0,0,1,.84.46l2.69,7.58a1.45,1.45,0,0,1-1.14,1.85c-3.56.64-5.31.78-9.78,1.66-2.75.54-6.72,1.61-10.52,2.36s-4.72-2.86-3.2-3.5c6.8-2.88,7.52-5.15,9.53-7.57A2.48,2.48,0,0,1,169,382Z" style="fill:#263238"></path><path d="M164.12,383.79a1.33,1.33,0,0,0,.26.21c1,.61,3-.15,4.16-.65a.2.2,0,0,0,.12-.2.21.21,0,0,0-.13-.2c-.35-.14-3.46-1.32-4.41-.64a.74.74,0,0,0-.3.66A1.31,1.31,0,0,0,164.12,383.79Zm3.75-.62c-1.53.62-2.73.79-3.27.47a.8.8,0,0,1-.35-.69.3.3,0,0,1,.13-.29C164.88,382.3,166.61,382.73,167.87,383.17Z" style="fill:#03A84E"></path><path d="M166.05,381.68a6.46,6.46,0,0,0,2.33,1.68.22.22,0,0,0,.28-.25c0-.11-.53-2.62-1.66-3.28a1.17,1.17,0,0,0-1-.11.75.75,0,0,0-.61.73A2.07,2.07,0,0,0,166.05,381.68Zm2.09,1.11c-1-.49-2.29-1.71-2.3-2.34,0-.1,0-.23.31-.32a.74.74,0,0,1,.63.07A4.84,4.84,0,0,1,168.14,382.79Z" style="fill:#03A84E"></path></g></svg>